G04 EAGLE Gerber RS-274X export*
G75*
%MOMM*%
%FSLAX34Y34*%
%LPD*%
%INBottom Copper*%
%IPPOS*%
%AMOC8*
5,1,8,0,0,1.08239X$1,22.5*%
G01*
%ADD10C,1.270000*%
%ADD11C,1.158000*%
%ADD12C,1.200000*%
%ADD13C,1.478000*%
%ADD14C,0.711200*%
%ADD15C,0.254000*%

G36*
X18294Y3812D02*
X18294Y3812D01*
X18316Y3811D01*
X20045Y3856D01*
X20054Y3852D01*
X20136Y3842D01*
X20216Y3821D01*
X20363Y3812D01*
X20370Y3811D01*
X20372Y3811D01*
X20377Y3811D01*
X210728Y3811D01*
X210778Y3817D01*
X210827Y3815D01*
X210935Y3837D01*
X211044Y3851D01*
X211090Y3869D01*
X211139Y3879D01*
X211237Y3927D01*
X211339Y3968D01*
X211380Y3997D01*
X211424Y4019D01*
X211508Y4090D01*
X211597Y4154D01*
X211628Y4193D01*
X211666Y4225D01*
X211729Y4315D01*
X211800Y4399D01*
X211821Y4444D01*
X211849Y4485D01*
X211888Y4588D01*
X211935Y4687D01*
X211944Y4736D01*
X211962Y4782D01*
X211974Y4892D01*
X211995Y4999D01*
X211992Y5049D01*
X211997Y5098D01*
X211982Y5207D01*
X211975Y5317D01*
X211960Y5364D01*
X211953Y5413D01*
X211901Y5566D01*
X211548Y6417D01*
X211548Y8438D01*
X212322Y10305D01*
X213751Y11735D01*
X215618Y12508D01*
X217640Y12508D01*
X219507Y11735D01*
X220936Y10305D01*
X221710Y8438D01*
X221710Y6417D01*
X221357Y5566D01*
X221344Y5518D01*
X221323Y5473D01*
X221302Y5365D01*
X221273Y5259D01*
X221273Y5209D01*
X221263Y5160D01*
X221270Y5051D01*
X221268Y4941D01*
X221280Y4893D01*
X221283Y4843D01*
X221317Y4739D01*
X221342Y4632D01*
X221366Y4588D01*
X221381Y4541D01*
X221440Y4448D01*
X221491Y4351D01*
X221525Y4314D01*
X221551Y4272D01*
X221631Y4197D01*
X221705Y4115D01*
X221747Y4088D01*
X221783Y4054D01*
X221879Y4001D01*
X221971Y3941D01*
X222018Y3924D01*
X222061Y3900D01*
X222167Y3873D01*
X222272Y3837D01*
X222321Y3833D01*
X222369Y3821D01*
X222530Y3811D01*
X256197Y3811D01*
X256198Y3811D01*
X256201Y3811D01*
X264486Y3834D01*
X264505Y3836D01*
X264523Y3835D01*
X264683Y3850D01*
X266186Y4090D01*
X266278Y4117D01*
X266372Y4135D01*
X266473Y4174D01*
X266491Y4179D01*
X266500Y4185D01*
X266522Y4193D01*
X269385Y5530D01*
X269516Y5612D01*
X269647Y5693D01*
X269652Y5698D01*
X269654Y5699D01*
X269660Y5705D01*
X269766Y5803D01*
X271950Y8086D01*
X272040Y8207D01*
X272134Y8333D01*
X272137Y8339D01*
X272139Y8341D01*
X272142Y8348D01*
X272205Y8478D01*
X273413Y11397D01*
X273439Y11490D01*
X273473Y11580D01*
X273492Y11686D01*
X273497Y11704D01*
X273497Y11715D01*
X273501Y11738D01*
X273681Y13304D01*
X273681Y13317D01*
X273689Y13449D01*
X273689Y335376D01*
X273677Y335472D01*
X273675Y335568D01*
X273652Y335672D01*
X273649Y335692D01*
X273645Y335702D01*
X273640Y335725D01*
X273136Y337486D01*
X273095Y337583D01*
X273061Y337684D01*
X273020Y337758D01*
X273011Y337778D01*
X273002Y337791D01*
X272982Y337825D01*
X270682Y341388D01*
X270613Y341470D01*
X270552Y341557D01*
X270491Y341615D01*
X270477Y341632D01*
X270464Y341641D01*
X270436Y341668D01*
X269873Y342145D01*
X269834Y342170D01*
X269800Y342203D01*
X269701Y342257D01*
X269607Y342318D01*
X269562Y342333D01*
X269521Y342356D01*
X269412Y342384D01*
X269335Y342410D01*
X268509Y343237D01*
X268482Y343257D01*
X268459Y343283D01*
X268333Y343383D01*
X267412Y344020D01*
X267371Y344150D01*
X267331Y344288D01*
X267323Y344301D01*
X267318Y344316D01*
X267242Y344438D01*
X267169Y344562D01*
X267155Y344578D01*
X267150Y344586D01*
X267137Y344599D01*
X267063Y344682D01*
X257607Y354138D01*
X257579Y354160D01*
X257555Y354187D01*
X257454Y354257D01*
X257356Y354333D01*
X257323Y354347D01*
X257293Y354368D01*
X257177Y354410D01*
X257100Y354444D01*
X256230Y355506D01*
X256216Y355519D01*
X256146Y355599D01*
X254978Y356768D01*
X254944Y356825D01*
X254876Y356902D01*
X254865Y356918D01*
X254856Y356925D01*
X254838Y356946D01*
X254308Y357477D01*
X254224Y357542D01*
X254146Y357614D01*
X254074Y357658D01*
X254057Y357672D01*
X254042Y357678D01*
X254009Y357699D01*
X249839Y359934D01*
X249739Y359973D01*
X249644Y360019D01*
X249562Y360041D01*
X249542Y360048D01*
X249526Y360050D01*
X249488Y360060D01*
X247282Y360502D01*
X247237Y360505D01*
X247194Y360516D01*
X247033Y360527D01*
X209933Y360527D01*
X209933Y360526D01*
X209932Y360527D01*
X200873Y360519D01*
X200859Y360517D01*
X200845Y360518D01*
X200702Y360497D01*
X200558Y360478D01*
X200545Y360473D01*
X200531Y360471D01*
X200397Y360415D01*
X200262Y360361D01*
X200251Y360353D01*
X200238Y360347D01*
X200122Y360259D01*
X200005Y360174D01*
X199996Y360163D01*
X199985Y360155D01*
X199895Y360041D01*
X199803Y359929D01*
X199797Y359916D01*
X199788Y359905D01*
X199729Y359773D01*
X199667Y359641D01*
X199665Y359627D01*
X199659Y359614D01*
X199635Y359471D01*
X199608Y359329D01*
X199609Y359315D01*
X199606Y359300D01*
X199619Y359156D01*
X199628Y359011D01*
X199632Y358998D01*
X199633Y358984D01*
X199681Y358847D01*
X199726Y358709D01*
X199734Y358697D01*
X199738Y358683D01*
X199819Y358544D01*
X200009Y358261D01*
X200679Y356643D01*
X200690Y356588D01*
X193400Y356588D01*
X193282Y356574D01*
X193163Y356566D01*
X193125Y356554D01*
X193084Y356549D01*
X192974Y356505D01*
X192861Y356468D01*
X192826Y356446D01*
X192789Y356432D01*
X192692Y356362D01*
X192592Y356298D01*
X192564Y356268D01*
X192531Y356245D01*
X192455Y356153D01*
X192374Y356066D01*
X192354Y356031D01*
X192329Y356000D01*
X192278Y355892D01*
X192220Y355788D01*
X192210Y355749D01*
X192193Y355712D01*
X192171Y355595D01*
X192141Y355480D01*
X192137Y355420D01*
X192133Y355400D01*
X192135Y355379D01*
X192131Y355319D01*
X192131Y354048D01*
X192129Y354048D01*
X192129Y355319D01*
X192114Y355437D01*
X192107Y355556D01*
X192094Y355595D01*
X192089Y355635D01*
X192045Y355745D01*
X192009Y355859D01*
X191987Y355893D01*
X191972Y355930D01*
X191902Y356027D01*
X191838Y356127D01*
X191809Y356155D01*
X191785Y356188D01*
X191694Y356264D01*
X191607Y356345D01*
X191571Y356365D01*
X191540Y356391D01*
X191433Y356441D01*
X191328Y356499D01*
X191289Y356509D01*
X191253Y356526D01*
X191136Y356548D01*
X191020Y356578D01*
X190960Y356582D01*
X190940Y356586D01*
X190920Y356585D01*
X190860Y356588D01*
X183570Y356588D01*
X183581Y356643D01*
X184251Y358261D01*
X184430Y358529D01*
X184437Y358542D01*
X184447Y358554D01*
X184508Y358685D01*
X184572Y358813D01*
X184576Y358828D01*
X184582Y358842D01*
X184609Y358983D01*
X184639Y359124D01*
X184639Y359140D01*
X184642Y359155D01*
X184633Y359298D01*
X184627Y359442D01*
X184623Y359457D01*
X184622Y359472D01*
X184577Y359609D01*
X184536Y359747D01*
X184528Y359760D01*
X184523Y359774D01*
X184446Y359896D01*
X184372Y360019D01*
X184361Y360030D01*
X184353Y360043D01*
X184248Y360142D01*
X184146Y360242D01*
X184132Y360250D01*
X184121Y360261D01*
X183994Y360330D01*
X183871Y360402D01*
X183856Y360406D01*
X183842Y360414D01*
X183702Y360450D01*
X183565Y360489D01*
X183549Y360489D01*
X183534Y360493D01*
X183374Y360503D01*
X174482Y360495D01*
X174433Y360489D01*
X174384Y360492D01*
X174276Y360469D01*
X174166Y360455D01*
X174121Y360437D01*
X174073Y360427D01*
X173973Y360379D01*
X173871Y360338D01*
X173831Y360309D01*
X173787Y360288D01*
X173703Y360216D01*
X173614Y360151D01*
X173582Y360113D01*
X173545Y360081D01*
X173481Y359991D01*
X173411Y359906D01*
X173390Y359861D01*
X173362Y359821D01*
X173323Y359718D01*
X173276Y359618D01*
X173266Y359570D01*
X173249Y359524D01*
X173237Y359414D01*
X173216Y359306D01*
X173219Y359257D01*
X173214Y359208D01*
X173229Y359098D01*
X173236Y358988D01*
X173251Y358941D01*
X173258Y358893D01*
X173310Y358740D01*
X174605Y355616D01*
X174605Y352483D01*
X174239Y351600D01*
X174231Y351572D01*
X174218Y351546D01*
X174189Y351419D01*
X174155Y351294D01*
X174155Y351264D01*
X174148Y351235D01*
X174152Y351106D01*
X174150Y350976D01*
X174157Y350947D01*
X174158Y350918D01*
X174194Y350793D01*
X174224Y350666D01*
X174238Y350640D01*
X174246Y350612D01*
X174312Y350500D01*
X174373Y350385D01*
X174393Y350364D01*
X174408Y350338D01*
X174514Y350217D01*
X199163Y325568D01*
X199242Y325507D01*
X199314Y325439D01*
X199367Y325410D01*
X199415Y325373D01*
X199506Y325334D01*
X199592Y325286D01*
X199651Y325271D01*
X199707Y325247D01*
X199805Y325231D01*
X199900Y325207D01*
X200000Y325200D01*
X200021Y325197D01*
X200033Y325198D01*
X200061Y325196D01*
X201997Y325196D01*
X203865Y324423D01*
X205294Y322994D01*
X206067Y321126D01*
X206067Y319105D01*
X205294Y317238D01*
X203865Y315808D01*
X201997Y315035D01*
X199976Y315035D01*
X198109Y315808D01*
X196679Y317238D01*
X195906Y319105D01*
X195906Y320395D01*
X195894Y320493D01*
X195891Y320592D01*
X195874Y320651D01*
X195866Y320711D01*
X195830Y320803D01*
X195802Y320898D01*
X195771Y320950D01*
X195749Y321006D01*
X195691Y321086D01*
X195641Y321172D01*
X195574Y321247D01*
X195562Y321264D01*
X195553Y321271D01*
X195534Y321293D01*
X175975Y340852D01*
X175920Y340894D01*
X175872Y340944D01*
X175795Y340991D01*
X175724Y341047D01*
X175660Y341074D01*
X175600Y341111D01*
X175515Y341137D01*
X175432Y341173D01*
X175363Y341184D01*
X175296Y341204D01*
X175207Y341209D01*
X175118Y341223D01*
X175048Y341216D01*
X174979Y341219D01*
X174891Y341201D01*
X174801Y341193D01*
X174736Y341169D01*
X174667Y341155D01*
X174587Y341116D01*
X174502Y341085D01*
X174444Y341046D01*
X174382Y341015D01*
X174313Y340957D01*
X174239Y340907D01*
X174193Y340854D01*
X174140Y340809D01*
X174088Y340736D01*
X174028Y340668D01*
X173997Y340606D01*
X173957Y340549D01*
X173925Y340465D01*
X173884Y340385D01*
X173869Y340317D01*
X173844Y340252D01*
X173834Y340162D01*
X173814Y340075D01*
X173816Y340005D01*
X173809Y339936D01*
X173821Y339847D01*
X173824Y339757D01*
X173843Y339690D01*
X173853Y339621D01*
X173905Y339468D01*
X174629Y337722D01*
X174629Y335700D01*
X173855Y333833D01*
X172426Y332404D01*
X170559Y331630D01*
X168537Y331630D01*
X166670Y332404D01*
X165241Y333833D01*
X164467Y335700D01*
X164467Y337722D01*
X164609Y338063D01*
X164622Y338111D01*
X164643Y338156D01*
X164664Y338264D01*
X164693Y338370D01*
X164693Y338420D01*
X164703Y338468D01*
X164696Y338578D01*
X164698Y338688D01*
X164686Y338736D01*
X164683Y338786D01*
X164649Y338890D01*
X164624Y338997D01*
X164600Y339041D01*
X164585Y339088D01*
X164526Y339181D01*
X164475Y339278D01*
X164441Y339315D01*
X164415Y339357D01*
X164335Y339432D01*
X164261Y339514D01*
X164219Y339541D01*
X164183Y339575D01*
X164087Y339628D01*
X163995Y339688D01*
X163948Y339705D01*
X163905Y339729D01*
X163798Y339756D01*
X163694Y339792D01*
X163645Y339796D01*
X163597Y339808D01*
X163436Y339818D01*
X151609Y339818D01*
X149600Y341827D01*
X145162Y346265D01*
X145138Y346283D01*
X145119Y346306D01*
X145013Y346380D01*
X144911Y346460D01*
X144883Y346472D01*
X144859Y346489D01*
X144738Y346535D01*
X144619Y346586D01*
X144590Y346591D01*
X144562Y346601D01*
X144433Y346616D01*
X144305Y346636D01*
X144275Y346633D01*
X144246Y346637D01*
X144117Y346618D01*
X143988Y346606D01*
X143960Y346596D01*
X143931Y346592D01*
X143779Y346540D01*
X142896Y346175D01*
X139763Y346175D01*
X136869Y347373D01*
X134654Y349589D01*
X133455Y352483D01*
X133455Y355616D01*
X134735Y358704D01*
X134748Y358753D01*
X134769Y358798D01*
X134790Y358906D01*
X134818Y359011D01*
X134819Y359062D01*
X134829Y359111D01*
X134822Y359220D01*
X134824Y359329D01*
X134812Y359378D01*
X134809Y359428D01*
X134775Y359532D01*
X134749Y359638D01*
X134726Y359683D01*
X134710Y359731D01*
X134652Y359823D01*
X134601Y359920D01*
X134567Y359957D01*
X134540Y359999D01*
X134460Y360074D01*
X134387Y360155D01*
X134345Y360182D01*
X134308Y360217D01*
X134212Y360270D01*
X134121Y360330D01*
X134074Y360346D01*
X134030Y360370D01*
X133923Y360397D01*
X133820Y360433D01*
X133770Y360437D01*
X133721Y360449D01*
X133561Y360459D01*
X123700Y360451D01*
X123651Y360445D01*
X123602Y360447D01*
X123494Y360425D01*
X123385Y360411D01*
X123339Y360393D01*
X123291Y360383D01*
X123192Y360334D01*
X123089Y360293D01*
X123049Y360264D01*
X123005Y360243D01*
X122921Y360171D01*
X122832Y360106D01*
X122801Y360068D01*
X122763Y360037D01*
X122700Y359946D01*
X122629Y359861D01*
X122608Y359817D01*
X122580Y359776D01*
X122541Y359673D01*
X122494Y359573D01*
X122485Y359525D01*
X122467Y359479D01*
X122455Y359369D01*
X122435Y359261D01*
X122438Y359212D01*
X122432Y359163D01*
X122448Y359054D01*
X122455Y358944D01*
X122470Y358897D01*
X122477Y358848D01*
X122529Y358696D01*
X123805Y355616D01*
X123805Y352483D01*
X122606Y349589D01*
X120391Y347373D01*
X120295Y347334D01*
X120252Y347309D01*
X120205Y347292D01*
X120114Y347231D01*
X120019Y347176D01*
X119983Y347142D01*
X119942Y347114D01*
X119869Y347032D01*
X119790Y346955D01*
X119764Y346913D01*
X119732Y346875D01*
X119682Y346778D01*
X119624Y346684D01*
X119610Y346636D01*
X119587Y346592D01*
X119563Y346485D01*
X119531Y346380D01*
X119528Y346330D01*
X119517Y346282D01*
X119521Y346172D01*
X119515Y346062D01*
X119526Y346014D01*
X119527Y345964D01*
X119558Y345859D01*
X119580Y345751D01*
X119602Y345706D01*
X119615Y345659D01*
X119671Y345564D01*
X119719Y345465D01*
X119752Y345427D01*
X119777Y345385D01*
X119883Y345264D01*
X120248Y344899D01*
X121022Y343031D01*
X121022Y341010D01*
X120248Y339143D01*
X118819Y337713D01*
X116952Y336940D01*
X114931Y336940D01*
X113063Y337713D01*
X111634Y339143D01*
X110860Y341010D01*
X110860Y343031D01*
X111634Y344899D01*
X111992Y345257D01*
X112023Y345297D01*
X112060Y345330D01*
X112120Y345421D01*
X112187Y345508D01*
X112207Y345554D01*
X112234Y345596D01*
X112270Y345699D01*
X112314Y345800D01*
X112321Y345850D01*
X112338Y345896D01*
X112346Y346006D01*
X112363Y346114D01*
X112359Y346164D01*
X112363Y346213D01*
X112344Y346321D01*
X112334Y346431D01*
X112317Y346478D01*
X112308Y346527D01*
X112263Y346627D01*
X112226Y346730D01*
X112198Y346771D01*
X112178Y346817D01*
X112109Y346902D01*
X112047Y346993D01*
X112010Y347026D01*
X111979Y347065D01*
X111891Y347131D01*
X111809Y347204D01*
X111765Y347227D01*
X111725Y347256D01*
X111581Y347327D01*
X111469Y347373D01*
X109254Y349589D01*
X108055Y352483D01*
X108055Y355616D01*
X109325Y358682D01*
X109339Y358731D01*
X109360Y358776D01*
X109380Y358884D01*
X109409Y358989D01*
X109410Y359039D01*
X109419Y359088D01*
X109413Y359197D01*
X109414Y359307D01*
X109403Y359356D01*
X109399Y359406D01*
X109366Y359510D01*
X109340Y359616D01*
X109317Y359661D01*
X109301Y359708D01*
X109243Y359801D01*
X109191Y359897D01*
X109158Y359934D01*
X109131Y359977D01*
X109051Y360052D01*
X108978Y360133D01*
X108935Y360160D01*
X108899Y360195D01*
X108803Y360247D01*
X108712Y360307D01*
X108664Y360324D01*
X108620Y360348D01*
X108514Y360375D01*
X108411Y360411D01*
X108361Y360415D01*
X108312Y360427D01*
X108152Y360437D01*
X98309Y360428D01*
X98261Y360422D01*
X98212Y360425D01*
X98104Y360402D01*
X97994Y360388D01*
X97948Y360370D01*
X97900Y360360D01*
X97801Y360312D01*
X97698Y360271D01*
X97659Y360242D01*
X97615Y360221D01*
X97530Y360149D01*
X97441Y360084D01*
X97410Y360046D01*
X97373Y360014D01*
X97309Y359924D01*
X97239Y359839D01*
X97218Y359794D01*
X97189Y359754D01*
X97150Y359651D01*
X97103Y359551D01*
X97094Y359503D01*
X97077Y359457D01*
X97064Y359347D01*
X97044Y359239D01*
X97047Y359190D01*
X97041Y359141D01*
X97057Y359031D01*
X97064Y358921D01*
X97079Y358874D01*
X97086Y358826D01*
X97138Y358673D01*
X98405Y355616D01*
X98405Y352483D01*
X97206Y349589D01*
X94991Y347373D01*
X94614Y347218D01*
X94589Y347203D01*
X94561Y347194D01*
X94451Y347124D01*
X94338Y347060D01*
X94317Y347040D01*
X94292Y347024D01*
X94203Y346929D01*
X94110Y346839D01*
X94094Y346814D01*
X94074Y346792D01*
X94011Y346678D01*
X93943Y346568D01*
X93935Y346539D01*
X93920Y346514D01*
X93888Y346388D01*
X93850Y346264D01*
X93848Y346234D01*
X93841Y346206D01*
X93831Y346045D01*
X93831Y319927D01*
X93843Y319829D01*
X93846Y319730D01*
X93863Y319672D01*
X93871Y319611D01*
X93907Y319519D01*
X93935Y319424D01*
X93965Y319372D01*
X93988Y319316D01*
X94046Y319236D01*
X94096Y319150D01*
X94163Y319075D01*
X94175Y319058D01*
X94184Y319051D01*
X94203Y319029D01*
X95581Y317651D01*
X96355Y315783D01*
X96355Y313762D01*
X95581Y311895D01*
X94152Y310465D01*
X92285Y309692D01*
X90263Y309692D01*
X88396Y310465D01*
X86967Y311895D01*
X86193Y313762D01*
X86193Y315783D01*
X86967Y317651D01*
X87870Y318553D01*
X87930Y318632D01*
X87998Y318704D01*
X88027Y318757D01*
X88065Y318805D01*
X88104Y318896D01*
X88152Y318982D01*
X88167Y319041D01*
X88191Y319097D01*
X88206Y319195D01*
X88231Y319290D01*
X88237Y319390D01*
X88241Y319411D01*
X88240Y319423D01*
X88241Y319451D01*
X88241Y345626D01*
X88238Y345655D01*
X88240Y345684D01*
X88218Y345812D01*
X88201Y345941D01*
X88191Y345969D01*
X88186Y345998D01*
X88132Y346116D01*
X88084Y346237D01*
X88067Y346261D01*
X88055Y346288D01*
X87974Y346389D01*
X87898Y346494D01*
X87875Y346513D01*
X87856Y346536D01*
X87753Y346614D01*
X87653Y346697D01*
X87626Y346710D01*
X87602Y346727D01*
X87458Y346798D01*
X86069Y347373D01*
X83854Y349589D01*
X82655Y352483D01*
X82655Y355616D01*
X83916Y358660D01*
X83929Y358708D01*
X83951Y358754D01*
X83971Y358861D01*
X84000Y358967D01*
X84001Y359017D01*
X84010Y359066D01*
X84003Y359175D01*
X84005Y359285D01*
X83993Y359333D01*
X83990Y359384D01*
X83956Y359487D01*
X83931Y359594D01*
X83907Y359638D01*
X83892Y359686D01*
X83833Y359778D01*
X83782Y359875D01*
X83748Y359912D01*
X83721Y359954D01*
X83642Y360029D01*
X83568Y360110D01*
X83526Y360138D01*
X83490Y360172D01*
X83394Y360225D01*
X83303Y360285D01*
X83255Y360301D01*
X83211Y360326D01*
X83105Y360353D01*
X83002Y360388D01*
X82952Y360392D01*
X82903Y360405D01*
X82742Y360415D01*
X72090Y360405D01*
X72077Y360404D01*
X69999Y360404D01*
X69998Y360404D01*
X67929Y360402D01*
X67923Y360403D01*
X67913Y360402D01*
X67908Y360402D01*
X67883Y360403D01*
X38244Y360400D01*
X38242Y360400D01*
X36139Y360400D01*
X36119Y360397D01*
X36056Y360397D01*
X34109Y360269D01*
X34066Y360261D01*
X34021Y360261D01*
X33864Y360229D01*
X30101Y359221D01*
X30022Y359188D01*
X29940Y359165D01*
X29817Y359105D01*
X29807Y359101D01*
X29803Y359098D01*
X29795Y359094D01*
X26422Y357147D01*
X26387Y357120D01*
X26348Y357100D01*
X26220Y357002D01*
X24753Y355715D01*
X24739Y355699D01*
X24692Y355658D01*
X15104Y346070D01*
X15050Y346000D01*
X14988Y345937D01*
X14953Y345876D01*
X13637Y344602D01*
X13632Y344597D01*
X13621Y344587D01*
X13581Y344547D01*
X13571Y344534D01*
X13539Y344502D01*
X12225Y343054D01*
X12199Y343018D01*
X12168Y342987D01*
X12076Y342854D01*
X10054Y339482D01*
X10019Y339404D01*
X9976Y339330D01*
X9930Y339201D01*
X9925Y339191D01*
X9925Y339187D01*
X9922Y339178D01*
X8840Y335398D01*
X8834Y335354D01*
X8819Y335312D01*
X8796Y335153D01*
X8635Y333198D01*
X8636Y333176D01*
X8630Y333094D01*
X8630Y45400D01*
X8648Y45262D01*
X8661Y45124D01*
X8668Y45105D01*
X8670Y45085D01*
X8722Y44955D01*
X8769Y44825D01*
X8780Y44808D01*
X8787Y44789D01*
X8869Y44677D01*
X8947Y44561D01*
X8962Y44548D01*
X8974Y44532D01*
X9081Y44443D01*
X9186Y44351D01*
X9204Y44342D01*
X9219Y44329D01*
X9345Y44270D01*
X9469Y44206D01*
X9489Y44202D01*
X9507Y44193D01*
X9643Y44167D01*
X9779Y44137D01*
X9799Y44137D01*
X9819Y44134D01*
X9958Y44142D01*
X10097Y44146D01*
X10117Y44152D01*
X10137Y44153D01*
X10269Y44196D01*
X10402Y44235D01*
X10420Y44245D01*
X10439Y44251D01*
X10557Y44326D01*
X10676Y44396D01*
X10697Y44415D01*
X10708Y44421D01*
X10722Y44436D01*
X10797Y44503D01*
X12033Y45739D01*
X13900Y46512D01*
X15922Y46512D01*
X17789Y45739D01*
X19218Y44309D01*
X19992Y42442D01*
X19992Y40421D01*
X19884Y40160D01*
X19871Y40112D01*
X19849Y40067D01*
X19829Y39959D01*
X19800Y39853D01*
X19799Y39803D01*
X19790Y39754D01*
X19796Y39645D01*
X19795Y39535D01*
X19806Y39487D01*
X19809Y39437D01*
X19843Y39333D01*
X19869Y39226D01*
X19892Y39182D01*
X19907Y39135D01*
X19966Y39042D01*
X20018Y38945D01*
X20051Y38908D01*
X20078Y38866D01*
X20136Y38811D01*
X20136Y25488D01*
X13219Y25488D01*
X13219Y30705D01*
X13548Y32355D01*
X14191Y33910D01*
X14546Y34441D01*
X14584Y34517D01*
X14631Y34587D01*
X14655Y34658D01*
X14689Y34726D01*
X14706Y34808D01*
X14734Y34888D01*
X14740Y34963D01*
X14756Y35036D01*
X14752Y35121D01*
X14759Y35205D01*
X14746Y35279D01*
X14743Y35354D01*
X14719Y35435D01*
X14705Y35518D01*
X14674Y35587D01*
X14652Y35659D01*
X14609Y35731D01*
X14574Y35808D01*
X14527Y35867D01*
X14488Y35932D01*
X14428Y35991D01*
X14375Y36057D01*
X14315Y36102D01*
X14262Y36155D01*
X14189Y36197D01*
X14121Y36248D01*
X13995Y36310D01*
X13987Y36315D01*
X13983Y36316D01*
X13977Y36319D01*
X12033Y37124D01*
X10797Y38360D01*
X10688Y38445D01*
X10580Y38534D01*
X10562Y38542D01*
X10546Y38555D01*
X10418Y38610D01*
X10293Y38669D01*
X10273Y38673D01*
X10254Y38681D01*
X10116Y38703D01*
X9980Y38729D01*
X9960Y38728D01*
X9940Y38731D01*
X9801Y38718D01*
X9663Y38709D01*
X9644Y38703D01*
X9623Y38701D01*
X9492Y38654D01*
X9360Y38611D01*
X9343Y38600D01*
X9324Y38594D01*
X9209Y38516D01*
X9092Y38441D01*
X9078Y38426D01*
X9061Y38415D01*
X8969Y38311D01*
X8874Y38210D01*
X8864Y38192D01*
X8850Y38177D01*
X8787Y38052D01*
X8720Y37931D01*
X8715Y37911D01*
X8706Y37893D01*
X8675Y37758D01*
X8641Y37623D01*
X8639Y37595D01*
X8636Y37583D01*
X8637Y37563D01*
X8630Y37462D01*
X8630Y12961D01*
X8631Y12958D01*
X8640Y12803D01*
X8836Y11240D01*
X8843Y11210D01*
X8844Y11189D01*
X8862Y11134D01*
X8880Y11032D01*
X8909Y10953D01*
X8914Y10931D01*
X8922Y10918D01*
X8936Y10881D01*
X10222Y7990D01*
X10227Y7982D01*
X10230Y7973D01*
X10310Y7845D01*
X10387Y7718D01*
X10394Y7711D01*
X10399Y7703D01*
X10508Y7585D01*
X12804Y5407D01*
X12811Y5401D01*
X12817Y5394D01*
X12878Y5351D01*
X12907Y5323D01*
X12947Y5301D01*
X13060Y5218D01*
X13068Y5215D01*
X13076Y5209D01*
X13222Y5142D01*
X16177Y4008D01*
X16280Y3982D01*
X16381Y3949D01*
X16464Y3937D01*
X16485Y3932D01*
X16501Y3932D01*
X16540Y3927D01*
X18102Y3814D01*
X18124Y3815D01*
X18194Y3811D01*
X18283Y3811D01*
X18294Y3812D01*
G37*
%LPC*%
G36*
X149944Y90901D02*
X149944Y90901D01*
X146014Y92529D01*
X143006Y95537D01*
X142597Y96525D01*
X142573Y96568D01*
X142556Y96615D01*
X142494Y96706D01*
X142440Y96801D01*
X142405Y96837D01*
X142377Y96878D01*
X142295Y96951D01*
X142218Y97029D01*
X142176Y97055D01*
X142139Y97088D01*
X142041Y97138D01*
X141947Y97196D01*
X141900Y97210D01*
X141856Y97233D01*
X141748Y97257D01*
X141643Y97289D01*
X141594Y97292D01*
X141545Y97303D01*
X141436Y97299D01*
X141326Y97304D01*
X141277Y97294D01*
X141227Y97293D01*
X141122Y97262D01*
X141014Y97240D01*
X140970Y97218D01*
X140922Y97205D01*
X140827Y97149D01*
X140729Y97100D01*
X140691Y97068D01*
X140648Y97043D01*
X140527Y96937D01*
X139800Y96210D01*
X137933Y95436D01*
X135911Y95436D01*
X134044Y96210D01*
X132615Y97639D01*
X131841Y99506D01*
X131841Y101528D01*
X132615Y103395D01*
X134044Y104824D01*
X135911Y105598D01*
X137933Y105598D01*
X139800Y104824D01*
X139896Y104728D01*
X139936Y104698D01*
X139969Y104661D01*
X140061Y104601D01*
X140148Y104533D01*
X140193Y104513D01*
X140235Y104486D01*
X140338Y104450D01*
X140439Y104407D01*
X140489Y104399D01*
X140535Y104383D01*
X140645Y104374D01*
X140753Y104357D01*
X140803Y104362D01*
X140852Y104358D01*
X140960Y104376D01*
X141070Y104387D01*
X141117Y104404D01*
X141166Y104412D01*
X141266Y104457D01*
X141369Y104494D01*
X141411Y104522D01*
X141456Y104543D01*
X141542Y104611D01*
X141632Y104673D01*
X141665Y104710D01*
X141704Y104741D01*
X141770Y104829D01*
X141843Y104911D01*
X141866Y104956D01*
X141895Y104995D01*
X141966Y105140D01*
X143006Y107651D01*
X146014Y110659D01*
X149944Y112287D01*
X154198Y112287D01*
X158128Y110659D01*
X161136Y107651D01*
X162764Y103721D01*
X162764Y99467D01*
X161136Y95537D01*
X158128Y92529D01*
X154198Y90901D01*
X149944Y90901D01*
G37*
%LPD*%
%LPC*%
G36*
X22302Y173043D02*
X22302Y173043D01*
X20435Y173817D01*
X19005Y175246D01*
X18232Y177113D01*
X18232Y179135D01*
X19005Y181002D01*
X20435Y182431D01*
X22302Y183205D01*
X24275Y183205D01*
X24325Y183211D01*
X24374Y183209D01*
X24482Y183231D01*
X24591Y183245D01*
X24637Y183263D01*
X24686Y183273D01*
X24784Y183321D01*
X24887Y183362D01*
X24927Y183391D01*
X24971Y183413D01*
X25055Y183484D01*
X25144Y183549D01*
X25176Y183587D01*
X25213Y183619D01*
X25277Y183709D01*
X25347Y183794D01*
X25368Y183839D01*
X25397Y183879D01*
X25435Y183982D01*
X25482Y184081D01*
X25492Y184130D01*
X25509Y184176D01*
X25521Y184286D01*
X25542Y184394D01*
X25539Y184443D01*
X25544Y184493D01*
X25529Y184602D01*
X25522Y184711D01*
X25507Y184758D01*
X25500Y184807D01*
X25448Y184960D01*
X24590Y187030D01*
X24590Y189051D01*
X25364Y190919D01*
X26793Y192348D01*
X28660Y193121D01*
X30682Y193121D01*
X32549Y192348D01*
X33978Y190919D01*
X34752Y189051D01*
X34752Y188477D01*
X34767Y188359D01*
X34774Y188240D01*
X34787Y188201D01*
X34792Y188161D01*
X34836Y188051D01*
X34872Y187937D01*
X34894Y187903D01*
X34909Y187866D01*
X34979Y187769D01*
X35042Y187669D01*
X35072Y187641D01*
X35096Y187608D01*
X35187Y187532D01*
X35274Y187451D01*
X35309Y187431D01*
X35341Y187405D01*
X35448Y187355D01*
X35553Y187297D01*
X35592Y187287D01*
X35628Y187270D01*
X35745Y187248D01*
X35860Y187218D01*
X35921Y187214D01*
X35941Y187210D01*
X35961Y187211D01*
X36021Y187208D01*
X37351Y187208D01*
X39219Y186434D01*
X40648Y185005D01*
X41421Y183138D01*
X41421Y181116D01*
X40648Y179249D01*
X39219Y177820D01*
X37351Y177046D01*
X35330Y177046D01*
X33463Y177820D01*
X32033Y179249D01*
X31260Y181116D01*
X31260Y181691D01*
X31245Y181809D01*
X31238Y181928D01*
X31225Y181966D01*
X31220Y182006D01*
X31176Y182117D01*
X31139Y182230D01*
X31118Y182264D01*
X31103Y182302D01*
X31033Y182398D01*
X30969Y182499D01*
X30940Y182527D01*
X30916Y182559D01*
X30824Y182635D01*
X30738Y182717D01*
X30702Y182736D01*
X30671Y182762D01*
X30563Y182813D01*
X30459Y182870D01*
X30420Y182880D01*
X30383Y182898D01*
X30267Y182920D01*
X30151Y182950D01*
X30091Y182954D01*
X30071Y182957D01*
X30051Y182956D01*
X29991Y182960D01*
X28708Y182960D01*
X28659Y182954D01*
X28610Y182956D01*
X28502Y182934D01*
X28393Y182920D01*
X28347Y182902D01*
X28298Y182892D01*
X28200Y182844D01*
X28097Y182803D01*
X28057Y182774D01*
X28012Y182752D01*
X27929Y182681D01*
X27840Y182616D01*
X27808Y182578D01*
X27770Y182546D01*
X27707Y182456D01*
X27637Y182371D01*
X27616Y182326D01*
X27587Y182286D01*
X27548Y182183D01*
X27502Y182084D01*
X27492Y182035D01*
X27475Y181988D01*
X27462Y181879D01*
X27442Y181771D01*
X27445Y181722D01*
X27439Y181672D01*
X27455Y181563D01*
X27462Y181454D01*
X27477Y181407D01*
X27484Y181357D01*
X27536Y181205D01*
X28393Y179135D01*
X28393Y177113D01*
X27620Y175246D01*
X26191Y173817D01*
X24323Y173043D01*
X22302Y173043D01*
G37*
%LPD*%
%LPC*%
G36*
X183476Y202081D02*
X183476Y202081D01*
X181609Y202855D01*
X180179Y204284D01*
X179406Y206151D01*
X179406Y208173D01*
X180179Y210040D01*
X181609Y211469D01*
X183476Y212243D01*
X184447Y212243D01*
X184565Y212258D01*
X184684Y212265D01*
X184723Y212278D01*
X184763Y212283D01*
X184874Y212326D01*
X184987Y212363D01*
X185021Y212385D01*
X185058Y212400D01*
X185155Y212470D01*
X185255Y212533D01*
X185283Y212563D01*
X185316Y212587D01*
X185392Y212678D01*
X185473Y212765D01*
X185493Y212800D01*
X185519Y212831D01*
X185569Y212939D01*
X185627Y213043D01*
X185637Y213083D01*
X185654Y213119D01*
X185676Y213236D01*
X185706Y213351D01*
X185710Y213412D01*
X185714Y213432D01*
X185713Y213452D01*
X185716Y213512D01*
X185716Y214268D01*
X186030Y215025D01*
X186048Y215092D01*
X186076Y215156D01*
X186090Y215245D01*
X186114Y215332D01*
X186115Y215401D01*
X186126Y215470D01*
X186117Y215560D01*
X186119Y215650D01*
X186103Y215718D01*
X186096Y215787D01*
X186066Y215871D01*
X186045Y215959D01*
X186012Y216020D01*
X185988Y216086D01*
X185938Y216161D01*
X185896Y216240D01*
X185849Y216292D01*
X185810Y216349D01*
X185742Y216409D01*
X185682Y216475D01*
X185624Y216514D01*
X185571Y216560D01*
X185491Y216601D01*
X185416Y216650D01*
X185350Y216673D01*
X185288Y216704D01*
X185201Y216724D01*
X185116Y216753D01*
X185046Y216759D01*
X184978Y216774D01*
X184888Y216771D01*
X184799Y216778D01*
X184730Y216766D01*
X184660Y216764D01*
X184574Y216739D01*
X184485Y216724D01*
X184422Y216695D01*
X184354Y216676D01*
X184277Y216630D01*
X184195Y216593D01*
X184141Y216550D01*
X184081Y216514D01*
X183960Y216408D01*
X183164Y215612D01*
X181297Y214839D01*
X179275Y214839D01*
X177408Y215612D01*
X175979Y217041D01*
X175205Y218909D01*
X175205Y220930D01*
X175979Y222797D01*
X177408Y224227D01*
X179275Y225000D01*
X181297Y225000D01*
X183164Y224227D01*
X184593Y222797D01*
X185367Y220930D01*
X185367Y218909D01*
X185053Y218152D01*
X185035Y218085D01*
X185007Y218021D01*
X184993Y217932D01*
X184969Y217846D01*
X184968Y217776D01*
X184957Y217707D01*
X184966Y217617D01*
X184964Y217528D01*
X184981Y217460D01*
X184987Y217390D01*
X185018Y217306D01*
X185038Y217218D01*
X185071Y217157D01*
X185095Y217091D01*
X185145Y217016D01*
X185187Y216937D01*
X185234Y216886D01*
X185273Y216828D01*
X185341Y216768D01*
X185401Y216702D01*
X185459Y216663D01*
X185512Y216617D01*
X185592Y216576D01*
X185667Y216527D01*
X185733Y216504D01*
X185795Y216473D01*
X185883Y216453D01*
X185968Y216424D01*
X186037Y216418D01*
X186105Y216403D01*
X186195Y216406D01*
X186285Y216399D01*
X186353Y216411D01*
X186423Y216413D01*
X186510Y216438D01*
X186598Y216453D01*
X186662Y216482D01*
X186729Y216501D01*
X186806Y216547D01*
X186888Y216584D01*
X186942Y216627D01*
X187003Y216663D01*
X187123Y216769D01*
X187919Y217565D01*
X189787Y218338D01*
X191808Y218338D01*
X193675Y217565D01*
X195104Y216136D01*
X195878Y214268D01*
X195878Y212247D01*
X195104Y210380D01*
X193675Y208950D01*
X191808Y208177D01*
X190837Y208177D01*
X190718Y208162D01*
X190600Y208155D01*
X190561Y208142D01*
X190521Y208137D01*
X190410Y208093D01*
X190297Y208057D01*
X190263Y208035D01*
X190225Y208020D01*
X190129Y207950D01*
X190029Y207886D01*
X190001Y207857D01*
X189968Y207833D01*
X189892Y207741D01*
X189811Y207655D01*
X189791Y207619D01*
X189765Y207588D01*
X189715Y207481D01*
X189657Y207376D01*
X189647Y207337D01*
X189630Y207300D01*
X189607Y207184D01*
X189578Y207068D01*
X189574Y207008D01*
X189570Y206988D01*
X189571Y206975D01*
X189570Y206971D01*
X189571Y206959D01*
X189567Y206908D01*
X189567Y206151D01*
X188794Y204284D01*
X187365Y202855D01*
X185497Y202081D01*
X183476Y202081D01*
G37*
%LPD*%
%LPC*%
G36*
X17118Y92550D02*
X17118Y92550D01*
X15251Y93324D01*
X13821Y94753D01*
X13048Y96620D01*
X13048Y98642D01*
X13821Y100509D01*
X15251Y101938D01*
X17118Y102712D01*
X19139Y102712D01*
X20089Y102318D01*
X20203Y102287D01*
X20316Y102248D01*
X20356Y102245D01*
X20395Y102234D01*
X20515Y102232D01*
X20633Y102223D01*
X20673Y102230D01*
X20713Y102229D01*
X20829Y102257D01*
X20946Y102277D01*
X20983Y102294D01*
X21023Y102303D01*
X21128Y102359D01*
X21236Y102408D01*
X21268Y102433D01*
X21304Y102452D01*
X21392Y102532D01*
X21485Y102607D01*
X21509Y102639D01*
X21539Y102666D01*
X21604Y102765D01*
X21676Y102861D01*
X21703Y102915D01*
X21714Y102932D01*
X21721Y102951D01*
X21747Y103005D01*
X22045Y103724D01*
X23474Y105153D01*
X24450Y105558D01*
X24554Y105617D01*
X24660Y105669D01*
X24691Y105695D01*
X24726Y105715D01*
X24812Y105798D01*
X24902Y105875D01*
X24926Y105908D01*
X24955Y105936D01*
X25017Y106038D01*
X25085Y106135D01*
X25100Y106173D01*
X25121Y106207D01*
X25156Y106321D01*
X25198Y106433D01*
X25203Y106473D01*
X25215Y106511D01*
X25220Y106630D01*
X25233Y106749D01*
X25228Y106789D01*
X25230Y106829D01*
X25206Y106946D01*
X25189Y107064D01*
X25169Y107120D01*
X25165Y107140D01*
X25156Y107159D01*
X25137Y107216D01*
X24827Y107963D01*
X24827Y109985D01*
X25601Y111852D01*
X27030Y113281D01*
X28897Y114055D01*
X30919Y114055D01*
X32786Y113281D01*
X34215Y111852D01*
X34989Y109985D01*
X34989Y107963D01*
X34215Y106096D01*
X32786Y104667D01*
X31810Y104262D01*
X31706Y104203D01*
X31600Y104151D01*
X31569Y104125D01*
X31534Y104105D01*
X31448Y104022D01*
X31358Y103945D01*
X31334Y103912D01*
X31305Y103884D01*
X31243Y103782D01*
X31175Y103685D01*
X31160Y103647D01*
X31139Y103613D01*
X31104Y103499D01*
X31062Y103387D01*
X31057Y103347D01*
X31045Y103309D01*
X31040Y103190D01*
X31027Y103071D01*
X31032Y103031D01*
X31030Y102991D01*
X31054Y102874D01*
X31071Y102756D01*
X31091Y102700D01*
X31095Y102680D01*
X31104Y102661D01*
X31123Y102604D01*
X31433Y101857D01*
X31433Y99835D01*
X30659Y97968D01*
X29230Y96539D01*
X27363Y95765D01*
X25341Y95765D01*
X24392Y96159D01*
X24277Y96190D01*
X24164Y96229D01*
X24124Y96232D01*
X24085Y96243D01*
X23966Y96244D01*
X23847Y96254D01*
X23808Y96247D01*
X23767Y96248D01*
X23651Y96220D01*
X23534Y96199D01*
X23497Y96183D01*
X23458Y96173D01*
X23353Y96118D01*
X23244Y96069D01*
X23212Y96044D01*
X23177Y96025D01*
X23089Y95945D01*
X22996Y95870D01*
X22971Y95838D01*
X22941Y95811D01*
X22876Y95711D01*
X22804Y95616D01*
X22778Y95562D01*
X22767Y95545D01*
X22760Y95526D01*
X22733Y95472D01*
X22436Y94753D01*
X21006Y93324D01*
X19139Y92550D01*
X17118Y92550D01*
G37*
%LPD*%
%LPC*%
G36*
X23384Y63738D02*
X23384Y63738D01*
X23384Y76075D01*
X23825Y75987D01*
X23980Y75976D01*
X24131Y75964D01*
X24136Y75965D01*
X24142Y75965D01*
X24294Y75993D01*
X24444Y76019D01*
X24449Y76021D01*
X24455Y76022D01*
X24596Y76087D01*
X24734Y76149D01*
X24739Y76153D01*
X24744Y76155D01*
X24863Y76252D01*
X24983Y76348D01*
X24986Y76352D01*
X24990Y76356D01*
X25081Y76478D01*
X25174Y76602D01*
X25177Y76609D01*
X25179Y76611D01*
X25183Y76620D01*
X25245Y76746D01*
X26109Y78832D01*
X27538Y80261D01*
X29405Y81035D01*
X31427Y81035D01*
X33450Y80197D01*
X33465Y80187D01*
X33516Y80169D01*
X33527Y80165D01*
X33539Y80161D01*
X33568Y80152D01*
X33668Y80108D01*
X33718Y80100D01*
X33766Y80084D01*
X33874Y80075D01*
X33982Y80058D01*
X34032Y80062D01*
X34083Y80058D01*
X34190Y80077D01*
X34298Y80087D01*
X34346Y80104D01*
X34396Y80113D01*
X34496Y80158D01*
X34598Y80194D01*
X34640Y80223D01*
X34686Y80243D01*
X34771Y80311D01*
X34861Y80373D01*
X34895Y80411D01*
X34934Y80442D01*
X35000Y80529D01*
X35072Y80611D01*
X35095Y80656D01*
X35126Y80696D01*
X35197Y80841D01*
X35353Y81218D01*
X36782Y82647D01*
X38649Y83421D01*
X40671Y83421D01*
X42538Y82647D01*
X43967Y81218D01*
X44741Y79351D01*
X44741Y77329D01*
X43967Y75462D01*
X42538Y74033D01*
X40671Y73259D01*
X38649Y73259D01*
X36626Y74097D01*
X36611Y74107D01*
X36560Y74125D01*
X36549Y74129D01*
X36537Y74133D01*
X36508Y74142D01*
X36408Y74186D01*
X36358Y74194D01*
X36310Y74210D01*
X36202Y74219D01*
X36094Y74236D01*
X36044Y74232D01*
X35993Y74236D01*
X35886Y74217D01*
X35778Y74207D01*
X35730Y74190D01*
X35680Y74181D01*
X35581Y74136D01*
X35478Y74100D01*
X35436Y74071D01*
X35390Y74051D01*
X35305Y73983D01*
X35215Y73922D01*
X35181Y73884D01*
X35142Y73852D01*
X35076Y73765D01*
X35004Y73683D01*
X34981Y73638D01*
X34950Y73598D01*
X34880Y73453D01*
X34723Y73076D01*
X33294Y71647D01*
X31427Y70873D01*
X31210Y70873D01*
X31126Y70863D01*
X31042Y70862D01*
X30969Y70843D01*
X30894Y70833D01*
X30816Y70802D01*
X30734Y70781D01*
X30669Y70744D01*
X30599Y70716D01*
X30530Y70667D01*
X30457Y70626D01*
X30402Y70574D01*
X30341Y70530D01*
X30287Y70464D01*
X30226Y70406D01*
X30186Y70343D01*
X30139Y70285D01*
X30103Y70208D01*
X30058Y70137D01*
X30035Y70065D01*
X30003Y69997D01*
X29987Y69914D01*
X29962Y69833D01*
X29957Y69758D01*
X29943Y69685D01*
X29948Y69600D01*
X29944Y69516D01*
X29962Y69376D01*
X29963Y69367D01*
X29964Y69364D01*
X29965Y69356D01*
X30091Y68725D01*
X30091Y63738D01*
X23384Y63738D01*
G37*
%LPD*%
%LPC*%
G36*
X23384Y60490D02*
X23384Y60490D01*
X30162Y60490D01*
X30207Y60397D01*
X30248Y60295D01*
X30277Y60255D01*
X30299Y60210D01*
X30370Y60127D01*
X30434Y60038D01*
X30473Y60006D01*
X30505Y59968D01*
X30595Y59905D01*
X30679Y59835D01*
X30724Y59814D01*
X30765Y59785D01*
X30868Y59746D01*
X30967Y59699D01*
X31016Y59690D01*
X31062Y59672D01*
X31172Y59660D01*
X31279Y59640D01*
X31329Y59643D01*
X31378Y59637D01*
X31487Y59652D01*
X31597Y59659D01*
X31644Y59675D01*
X31693Y59682D01*
X31846Y59734D01*
X33828Y60555D01*
X36092Y60555D01*
X38184Y59688D01*
X39784Y58088D01*
X40651Y55996D01*
X40651Y53732D01*
X39784Y51640D01*
X38184Y50040D01*
X36092Y49173D01*
X33828Y49173D01*
X31736Y50040D01*
X30339Y51438D01*
X30272Y51489D01*
X30212Y51549D01*
X30147Y51586D01*
X30087Y51632D01*
X30010Y51666D01*
X29937Y51708D01*
X29864Y51729D01*
X29795Y51759D01*
X29712Y51772D01*
X29631Y51795D01*
X29556Y51797D01*
X29481Y51809D01*
X29397Y51801D01*
X29313Y51803D01*
X29240Y51786D01*
X29165Y51779D01*
X29085Y51750D01*
X29003Y51731D01*
X28936Y51697D01*
X28865Y51671D01*
X28796Y51624D01*
X28721Y51585D01*
X28665Y51535D01*
X28602Y51493D01*
X28546Y51429D01*
X28483Y51373D01*
X28398Y51261D01*
X28392Y51254D01*
X28390Y51251D01*
X28386Y51245D01*
X28231Y51013D01*
X27071Y49853D01*
X25706Y48941D01*
X24190Y48313D01*
X23384Y48153D01*
X23384Y60490D01*
G37*
%LPD*%
%LPC*%
G36*
X105730Y48313D02*
X105730Y48313D01*
X104214Y48941D01*
X102849Y49853D01*
X101689Y51013D01*
X101534Y51245D01*
X101479Y51309D01*
X101432Y51379D01*
X101375Y51429D01*
X101326Y51485D01*
X101256Y51533D01*
X101193Y51589D01*
X101126Y51623D01*
X101064Y51666D01*
X100985Y51696D01*
X100910Y51734D01*
X100837Y51750D01*
X100766Y51776D01*
X100682Y51785D01*
X100600Y51804D01*
X100524Y51801D01*
X100450Y51809D01*
X100366Y51796D01*
X100282Y51794D01*
X100209Y51773D01*
X100135Y51762D01*
X100057Y51729D01*
X99976Y51705D01*
X99911Y51667D01*
X99842Y51638D01*
X99775Y51587D01*
X99702Y51544D01*
X99597Y51451D01*
X99589Y51445D01*
X99587Y51442D01*
X99581Y51438D01*
X98184Y50040D01*
X96092Y49173D01*
X93828Y49173D01*
X91736Y50040D01*
X90136Y51640D01*
X89269Y53732D01*
X89269Y55996D01*
X90136Y58088D01*
X91736Y59688D01*
X93828Y60555D01*
X96092Y60555D01*
X98074Y59734D01*
X98122Y59720D01*
X98167Y59699D01*
X98275Y59679D01*
X98381Y59650D01*
X98431Y59649D01*
X98480Y59640D01*
X98589Y59646D01*
X98699Y59645D01*
X98747Y59656D01*
X98797Y59659D01*
X98901Y59693D01*
X99008Y59719D01*
X99052Y59742D01*
X99099Y59757D01*
X99192Y59816D01*
X99289Y59867D01*
X99326Y59901D01*
X99368Y59927D01*
X99443Y60008D01*
X99525Y60081D01*
X99552Y60123D01*
X99586Y60159D01*
X99639Y60255D01*
X99699Y60347D01*
X99716Y60394D01*
X99740Y60438D01*
X99753Y60490D01*
X106536Y60490D01*
X106536Y48153D01*
X105730Y48313D01*
G37*
%LPD*%
%LPC*%
G36*
X107065Y131646D02*
X107065Y131646D01*
X105197Y132419D01*
X103768Y133849D01*
X102995Y135716D01*
X102995Y137737D01*
X103768Y139605D01*
X105197Y141034D01*
X106084Y141401D01*
X106205Y141470D01*
X106328Y141535D01*
X106343Y141549D01*
X106360Y141559D01*
X106460Y141655D01*
X106563Y141749D01*
X106574Y141766D01*
X106589Y141780D01*
X106661Y141898D01*
X106738Y142015D01*
X106744Y142034D01*
X106755Y142051D01*
X106796Y142184D01*
X106841Y142316D01*
X106843Y142336D01*
X106849Y142355D01*
X106855Y142494D01*
X106866Y142633D01*
X106863Y142653D01*
X106864Y142673D01*
X106836Y142809D01*
X106812Y142946D01*
X106803Y142964D01*
X106799Y142984D01*
X106738Y143110D01*
X106681Y143236D01*
X106669Y143252D01*
X106660Y143270D01*
X106569Y143376D01*
X106483Y143484D01*
X106466Y143496D01*
X106453Y143512D01*
X106339Y143592D01*
X106228Y143676D01*
X106203Y143688D01*
X106193Y143695D01*
X106174Y143702D01*
X106084Y143746D01*
X105939Y143807D01*
X104509Y145236D01*
X103736Y147103D01*
X103736Y149124D01*
X104509Y150992D01*
X105939Y152421D01*
X107806Y153195D01*
X109827Y153195D01*
X111695Y152421D01*
X113124Y150992D01*
X113897Y149124D01*
X113897Y147103D01*
X113124Y145236D01*
X111695Y143807D01*
X110808Y143439D01*
X110687Y143371D01*
X110564Y143305D01*
X110549Y143292D01*
X110532Y143282D01*
X110432Y143185D01*
X110329Y143092D01*
X110318Y143075D01*
X110303Y143061D01*
X110231Y142942D01*
X110154Y142826D01*
X110148Y142807D01*
X110137Y142789D01*
X110096Y142656D01*
X110051Y142525D01*
X110049Y142505D01*
X110043Y142485D01*
X110037Y142346D01*
X110026Y142208D01*
X110029Y142188D01*
X110028Y142168D01*
X110057Y142031D01*
X110080Y141895D01*
X110089Y141876D01*
X110093Y141856D01*
X110154Y141732D01*
X110211Y141605D01*
X110223Y141589D01*
X110232Y141571D01*
X110322Y141465D01*
X110409Y141356D01*
X110426Y141344D01*
X110439Y141329D01*
X110552Y141249D01*
X110663Y141165D01*
X110689Y141153D01*
X110699Y141146D01*
X110718Y141138D01*
X110808Y141094D01*
X110953Y141034D01*
X112383Y139605D01*
X113156Y137737D01*
X113156Y135716D01*
X112383Y133849D01*
X110953Y132419D01*
X109086Y131646D01*
X107065Y131646D01*
G37*
%LPD*%
%LPC*%
G36*
X65219Y98813D02*
X65219Y98813D01*
X63352Y99587D01*
X61923Y101016D01*
X61149Y102883D01*
X61149Y104905D01*
X61923Y106772D01*
X62909Y107759D01*
X62940Y107798D01*
X62977Y107831D01*
X63037Y107923D01*
X63104Y108010D01*
X63124Y108055D01*
X63151Y108097D01*
X63187Y108201D01*
X63231Y108302D01*
X63238Y108351D01*
X63254Y108398D01*
X63263Y108507D01*
X63280Y108616D01*
X63276Y108665D01*
X63280Y108715D01*
X63261Y108823D01*
X63251Y108932D01*
X63234Y108979D01*
X63225Y109028D01*
X63180Y109128D01*
X63143Y109232D01*
X63115Y109273D01*
X63095Y109318D01*
X63026Y109404D01*
X62964Y109495D01*
X62927Y109528D01*
X62896Y109566D01*
X62808Y109633D01*
X62726Y109705D01*
X62682Y109728D01*
X62642Y109758D01*
X62497Y109829D01*
X62082Y110001D01*
X60653Y111430D01*
X59879Y113297D01*
X59879Y115319D01*
X60653Y117186D01*
X62082Y118615D01*
X63949Y119389D01*
X65971Y119389D01*
X67838Y118615D01*
X69267Y117186D01*
X70041Y115319D01*
X70041Y113297D01*
X69267Y111430D01*
X68281Y110443D01*
X68250Y110404D01*
X68213Y110371D01*
X68153Y110279D01*
X68086Y110192D01*
X68066Y110147D01*
X68039Y110105D01*
X68003Y110001D01*
X67959Y109900D01*
X67952Y109851D01*
X67936Y109804D01*
X67927Y109695D01*
X67910Y109586D01*
X67914Y109537D01*
X67910Y109487D01*
X67929Y109379D01*
X67939Y109270D01*
X67956Y109223D01*
X67965Y109174D01*
X68010Y109074D01*
X68047Y108970D01*
X68075Y108929D01*
X68095Y108884D01*
X68164Y108798D01*
X68226Y108707D01*
X68263Y108674D01*
X68294Y108636D01*
X68382Y108569D01*
X68464Y108497D01*
X68508Y108474D01*
X68548Y108444D01*
X68693Y108373D01*
X69108Y108201D01*
X70537Y106772D01*
X71311Y104905D01*
X71311Y102883D01*
X70537Y101016D01*
X69108Y99587D01*
X67241Y98813D01*
X65219Y98813D01*
G37*
%LPD*%
%LPC*%
G36*
X19499Y122943D02*
X19499Y122943D01*
X17632Y123717D01*
X16203Y125146D01*
X15429Y127013D01*
X15429Y129035D01*
X16203Y130902D01*
X17632Y132331D01*
X19499Y133105D01*
X21521Y133105D01*
X22854Y132552D01*
X22988Y132516D01*
X23121Y132475D01*
X23141Y132474D01*
X23161Y132468D01*
X23300Y132466D01*
X23439Y132460D01*
X23458Y132464D01*
X23479Y132463D01*
X23614Y132496D01*
X23750Y132524D01*
X23768Y132533D01*
X23788Y132538D01*
X23911Y132602D01*
X24036Y132664D01*
X24051Y132677D01*
X24069Y132686D01*
X24172Y132780D01*
X24278Y132870D01*
X24289Y132887D01*
X24304Y132900D01*
X24381Y133017D01*
X24461Y133130D01*
X24468Y133149D01*
X24479Y133166D01*
X24524Y133298D01*
X24574Y133427D01*
X24576Y133448D01*
X24582Y133467D01*
X24593Y133605D01*
X24609Y133744D01*
X24606Y133764D01*
X24608Y133784D01*
X24584Y133921D01*
X24564Y134058D01*
X24555Y134085D01*
X24553Y134097D01*
X24545Y134116D01*
X24512Y134211D01*
X23811Y135903D01*
X23811Y137925D01*
X24585Y139792D01*
X26014Y141221D01*
X27881Y141995D01*
X29903Y141995D01*
X31770Y141221D01*
X33199Y139792D01*
X33973Y137925D01*
X33973Y135903D01*
X33199Y134036D01*
X31770Y132607D01*
X29903Y131833D01*
X27881Y131833D01*
X26548Y132386D01*
X26414Y132422D01*
X26281Y132463D01*
X26261Y132464D01*
X26241Y132470D01*
X26102Y132472D01*
X25963Y132478D01*
X25944Y132474D01*
X25923Y132475D01*
X25788Y132442D01*
X25652Y132414D01*
X25634Y132405D01*
X25614Y132400D01*
X25491Y132336D01*
X25366Y132274D01*
X25351Y132261D01*
X25333Y132252D01*
X25230Y132158D01*
X25124Y132068D01*
X25113Y132051D01*
X25098Y132038D01*
X25021Y131921D01*
X24941Y131808D01*
X24934Y131789D01*
X24923Y131772D01*
X24878Y131640D01*
X24828Y131511D01*
X24826Y131490D01*
X24820Y131471D01*
X24809Y131333D01*
X24793Y131194D01*
X24796Y131174D01*
X24794Y131154D01*
X24818Y131017D01*
X24838Y130880D01*
X24847Y130853D01*
X24849Y130841D01*
X24857Y130822D01*
X24890Y130727D01*
X25591Y129035D01*
X25591Y127013D01*
X24817Y125146D01*
X23388Y123717D01*
X21521Y122943D01*
X19499Y122943D01*
G37*
%LPD*%
%LPC*%
G36*
X235669Y13399D02*
X235669Y13399D01*
X233802Y14173D01*
X232373Y15602D01*
X231549Y17591D01*
X231480Y17712D01*
X231415Y17835D01*
X231401Y17850D01*
X231391Y17868D01*
X231295Y17967D01*
X231201Y18070D01*
X231184Y18081D01*
X231170Y18096D01*
X231051Y18169D01*
X230935Y18245D01*
X230916Y18252D01*
X230899Y18262D01*
X230766Y18303D01*
X230634Y18348D01*
X230614Y18350D01*
X230595Y18356D01*
X230456Y18362D01*
X230317Y18373D01*
X230297Y18370D01*
X230277Y18371D01*
X230141Y18343D01*
X230004Y18319D01*
X229986Y18311D01*
X229966Y18307D01*
X229841Y18245D01*
X229714Y18188D01*
X229698Y18176D01*
X229680Y18167D01*
X229574Y18077D01*
X229466Y17990D01*
X229454Y17974D01*
X229438Y17961D01*
X229358Y17847D01*
X229274Y17736D01*
X229262Y17711D01*
X229255Y17701D01*
X229248Y17681D01*
X229203Y17591D01*
X228487Y15862D01*
X227058Y14433D01*
X225191Y13659D01*
X223169Y13659D01*
X221302Y14433D01*
X219873Y15862D01*
X219099Y17729D01*
X219099Y19751D01*
X219873Y21618D01*
X221302Y23047D01*
X223169Y23821D01*
X225191Y23821D01*
X227058Y23047D01*
X228487Y21618D01*
X229311Y19629D01*
X229380Y19508D01*
X229445Y19385D01*
X229459Y19370D01*
X229469Y19352D01*
X229565Y19253D01*
X229659Y19150D01*
X229676Y19139D01*
X229690Y19124D01*
X229809Y19051D01*
X229925Y18975D01*
X229944Y18968D01*
X229961Y18958D01*
X230094Y18917D01*
X230226Y18872D01*
X230246Y18870D01*
X230265Y18864D01*
X230404Y18858D01*
X230543Y18847D01*
X230563Y18850D01*
X230583Y18849D01*
X230719Y18877D01*
X230856Y18901D01*
X230874Y18909D01*
X230894Y18913D01*
X231019Y18975D01*
X231146Y19032D01*
X231162Y19044D01*
X231180Y19053D01*
X231286Y19143D01*
X231394Y19230D01*
X231406Y19246D01*
X231422Y19259D01*
X231502Y19373D01*
X231586Y19484D01*
X231598Y19509D01*
X231605Y19519D01*
X231612Y19539D01*
X231657Y19629D01*
X232373Y21358D01*
X233802Y22787D01*
X235669Y23561D01*
X237691Y23561D01*
X239558Y22787D01*
X240987Y21358D01*
X241761Y19491D01*
X241761Y17469D01*
X240987Y15602D01*
X239558Y14173D01*
X237691Y13399D01*
X235669Y13399D01*
G37*
%LPD*%
%LPC*%
G36*
X214035Y150800D02*
X214035Y150800D01*
X212168Y151573D01*
X210739Y153003D01*
X209965Y154870D01*
X209965Y156891D01*
X210739Y158759D01*
X212168Y160188D01*
X214035Y160961D01*
X216085Y160961D01*
X216203Y160976D01*
X216322Y160984D01*
X216361Y160996D01*
X216401Y161001D01*
X216511Y161045D01*
X216625Y161082D01*
X216659Y161103D01*
X216696Y161118D01*
X216793Y161188D01*
X216893Y161252D01*
X216921Y161281D01*
X216954Y161305D01*
X217030Y161397D01*
X217111Y161483D01*
X217131Y161519D01*
X217157Y161550D01*
X217207Y161658D01*
X217265Y161762D01*
X217275Y161801D01*
X217292Y161838D01*
X217314Y161954D01*
X217344Y162070D01*
X217348Y162130D01*
X217352Y162150D01*
X217351Y162170D01*
X217354Y162231D01*
X217354Y163660D01*
X218128Y165527D01*
X219557Y166956D01*
X221425Y167730D01*
X223446Y167730D01*
X225313Y166956D01*
X226742Y165527D01*
X227516Y163660D01*
X227516Y161638D01*
X226742Y159771D01*
X225313Y158342D01*
X223446Y157568D01*
X221396Y157568D01*
X221278Y157553D01*
X221159Y157546D01*
X221121Y157533D01*
X221080Y157528D01*
X220970Y157484D01*
X220856Y157448D01*
X220822Y157426D01*
X220785Y157411D01*
X220688Y157341D01*
X220588Y157278D01*
X220560Y157248D01*
X220527Y157224D01*
X220451Y157133D01*
X220370Y157046D01*
X220350Y157011D01*
X220325Y156979D01*
X220274Y156872D01*
X220216Y156768D01*
X220206Y156728D01*
X220189Y156692D01*
X220167Y156575D01*
X220137Y156460D01*
X220133Y156399D01*
X220129Y156379D01*
X220130Y156359D01*
X220127Y156299D01*
X220127Y154870D01*
X219353Y153003D01*
X217924Y151573D01*
X216057Y150800D01*
X214035Y150800D01*
G37*
%LPD*%
%LPC*%
G36*
X245286Y173857D02*
X245286Y173857D01*
X243419Y174630D01*
X241990Y176060D01*
X241216Y177927D01*
X241216Y179948D01*
X241990Y181816D01*
X243419Y183245D01*
X245286Y184018D01*
X247308Y184018D01*
X249175Y183245D01*
X250604Y181816D01*
X251428Y179827D01*
X251497Y179706D01*
X251562Y179583D01*
X251575Y179568D01*
X251585Y179551D01*
X251682Y179451D01*
X251776Y179348D01*
X251793Y179337D01*
X251807Y179322D01*
X251925Y179250D01*
X252041Y179173D01*
X252061Y179166D01*
X252078Y179156D01*
X252211Y179115D01*
X252342Y179070D01*
X252362Y179068D01*
X252382Y179062D01*
X252521Y179056D01*
X252659Y179045D01*
X252679Y179048D01*
X252699Y179047D01*
X252836Y179075D01*
X252973Y179099D01*
X252991Y179107D01*
X253011Y179111D01*
X253136Y179173D01*
X253263Y179230D01*
X253278Y179242D01*
X253297Y179251D01*
X253403Y179341D01*
X253511Y179428D01*
X253523Y179444D01*
X253539Y179458D01*
X253619Y179571D01*
X253702Y179682D01*
X253715Y179708D01*
X253722Y179718D01*
X253729Y179737D01*
X253773Y179827D01*
X254629Y181893D01*
X256058Y183322D01*
X257926Y184096D01*
X259947Y184096D01*
X261814Y183322D01*
X263244Y181893D01*
X264017Y180026D01*
X264017Y178005D01*
X263244Y176137D01*
X261814Y174708D01*
X259947Y173934D01*
X257926Y173934D01*
X256058Y174708D01*
X254629Y176137D01*
X253805Y178126D01*
X253737Y178247D01*
X253671Y178370D01*
X253658Y178385D01*
X253648Y178402D01*
X253551Y178502D01*
X253458Y178605D01*
X253441Y178616D01*
X253427Y178631D01*
X253308Y178703D01*
X253192Y178780D01*
X253173Y178786D01*
X253155Y178797D01*
X253023Y178838D01*
X252891Y178883D01*
X252871Y178885D01*
X252851Y178891D01*
X252713Y178897D01*
X252574Y178908D01*
X252554Y178905D01*
X252534Y178906D01*
X252398Y178878D01*
X252261Y178854D01*
X252242Y178845D01*
X252222Y178841D01*
X252097Y178780D01*
X251971Y178723D01*
X251955Y178711D01*
X251937Y178702D01*
X251831Y178611D01*
X251722Y178525D01*
X251710Y178508D01*
X251695Y178495D01*
X251615Y178382D01*
X251531Y178271D01*
X251519Y178245D01*
X251512Y178235D01*
X251504Y178216D01*
X251460Y178126D01*
X250604Y176060D01*
X249175Y174630D01*
X247308Y173857D01*
X245286Y173857D01*
G37*
%LPD*%
%LPC*%
G36*
X202734Y52419D02*
X202734Y52419D01*
X200866Y53193D01*
X199769Y54289D01*
X199676Y54362D01*
X199586Y54441D01*
X199550Y54459D01*
X199518Y54484D01*
X199409Y54531D01*
X199303Y54586D01*
X199264Y54594D01*
X199226Y54611D01*
X199109Y54629D01*
X198993Y54655D01*
X198952Y54654D01*
X198912Y54660D01*
X198794Y54649D01*
X198675Y54646D01*
X198636Y54634D01*
X198596Y54631D01*
X198484Y54590D01*
X198369Y54557D01*
X198334Y54537D01*
X198296Y54523D01*
X198198Y54456D01*
X198095Y54396D01*
X198050Y54356D01*
X198033Y54344D01*
X198020Y54329D01*
X197974Y54289D01*
X196878Y53193D01*
X195011Y52419D01*
X192989Y52419D01*
X191122Y53193D01*
X189693Y54622D01*
X188919Y56489D01*
X188919Y58511D01*
X189693Y60378D01*
X191122Y61807D01*
X192989Y62581D01*
X195011Y62581D01*
X196878Y61807D01*
X197975Y60711D01*
X198069Y60638D01*
X198158Y60559D01*
X198194Y60540D01*
X198226Y60516D01*
X198335Y60468D01*
X198441Y60414D01*
X198481Y60405D01*
X198518Y60389D01*
X198636Y60371D01*
X198752Y60345D01*
X198792Y60346D01*
X198832Y60339D01*
X198951Y60351D01*
X199069Y60354D01*
X199108Y60365D01*
X199149Y60369D01*
X199261Y60409D01*
X199375Y60443D01*
X199410Y60463D01*
X199448Y60477D01*
X199546Y60544D01*
X199649Y60604D01*
X199694Y60644D01*
X199711Y60655D01*
X199725Y60671D01*
X199770Y60711D01*
X200866Y61807D01*
X202734Y62581D01*
X204755Y62581D01*
X206622Y61807D01*
X208051Y60378D01*
X208825Y58510D01*
X208825Y56489D01*
X208051Y54622D01*
X206622Y53193D01*
X204755Y52419D01*
X202734Y52419D01*
G37*
%LPD*%
%LPC*%
G36*
X244289Y100239D02*
X244289Y100239D01*
X242422Y101013D01*
X240993Y102442D01*
X240219Y104309D01*
X240219Y106331D01*
X240993Y108198D01*
X242024Y109229D01*
X242097Y109323D01*
X242176Y109413D01*
X242194Y109449D01*
X242219Y109481D01*
X242266Y109590D01*
X242320Y109696D01*
X242329Y109735D01*
X242345Y109772D01*
X242364Y109890D01*
X242390Y110006D01*
X242389Y110047D01*
X242395Y110087D01*
X242384Y110205D01*
X242380Y110324D01*
X242369Y110363D01*
X242365Y110403D01*
X242325Y110515D01*
X242292Y110630D01*
X242272Y110664D01*
X242258Y110702D01*
X242191Y110801D01*
X242130Y110903D01*
X242091Y110949D01*
X242079Y110966D01*
X242064Y110979D01*
X242024Y111024D01*
X240926Y112122D01*
X240153Y113989D01*
X240153Y116011D01*
X240926Y117878D01*
X242356Y119307D01*
X244223Y120081D01*
X246244Y120081D01*
X248111Y119307D01*
X249541Y117878D01*
X250314Y116011D01*
X250314Y113989D01*
X249541Y112122D01*
X248509Y111091D01*
X248437Y110997D01*
X248358Y110908D01*
X248339Y110871D01*
X248314Y110840D01*
X248267Y110730D01*
X248213Y110624D01*
X248204Y110585D01*
X248188Y110548D01*
X248169Y110430D01*
X248143Y110314D01*
X248145Y110274D01*
X248138Y110234D01*
X248149Y110115D01*
X248153Y109996D01*
X248164Y109957D01*
X248168Y109917D01*
X248208Y109805D01*
X248241Y109691D01*
X248262Y109656D01*
X248276Y109618D01*
X248343Y109519D01*
X248403Y109417D01*
X248443Y109372D01*
X248454Y109355D01*
X248470Y109341D01*
X248509Y109296D01*
X249607Y108198D01*
X250381Y106331D01*
X250381Y104309D01*
X249607Y102442D01*
X248178Y101013D01*
X246311Y100239D01*
X244289Y100239D01*
G37*
%LPD*%
%LPC*%
G36*
X63516Y70808D02*
X63516Y70808D01*
X61649Y71582D01*
X61010Y72220D01*
X60916Y72293D01*
X60827Y72372D01*
X60791Y72390D01*
X60759Y72415D01*
X60649Y72463D01*
X60543Y72517D01*
X60504Y72525D01*
X60467Y72542D01*
X60349Y72560D01*
X60233Y72586D01*
X60193Y72585D01*
X60153Y72591D01*
X60034Y72580D01*
X59915Y72577D01*
X59876Y72565D01*
X59836Y72562D01*
X59724Y72521D01*
X59610Y72488D01*
X59575Y72468D01*
X59537Y72454D01*
X59438Y72387D01*
X59336Y72327D01*
X59291Y72287D01*
X59274Y72275D01*
X59260Y72260D01*
X59215Y72220D01*
X58648Y71654D01*
X56781Y70880D01*
X54760Y70880D01*
X52892Y71654D01*
X51463Y73083D01*
X50690Y74950D01*
X50690Y76972D01*
X51463Y78839D01*
X52892Y80268D01*
X54760Y81042D01*
X56781Y81042D01*
X58648Y80268D01*
X59287Y79630D01*
X59381Y79557D01*
X59470Y79478D01*
X59506Y79459D01*
X59538Y79435D01*
X59648Y79387D01*
X59754Y79333D01*
X59793Y79324D01*
X59830Y79308D01*
X59948Y79290D01*
X60064Y79264D01*
X60104Y79265D01*
X60144Y79258D01*
X60263Y79270D01*
X60382Y79273D01*
X60421Y79284D01*
X60461Y79288D01*
X60573Y79329D01*
X60687Y79362D01*
X60722Y79382D01*
X60760Y79396D01*
X60859Y79463D01*
X60961Y79523D01*
X61007Y79563D01*
X61023Y79574D01*
X61037Y79590D01*
X61082Y79630D01*
X61649Y80196D01*
X63516Y80970D01*
X65537Y80970D01*
X67405Y80196D01*
X68834Y78767D01*
X69607Y76900D01*
X69607Y74878D01*
X68834Y73011D01*
X67405Y71582D01*
X65537Y70808D01*
X63516Y70808D01*
G37*
%LPD*%
%LPC*%
G36*
X105093Y182639D02*
X105093Y182639D01*
X103226Y183413D01*
X101797Y184842D01*
X101023Y186709D01*
X101023Y188731D01*
X101797Y190598D01*
X103226Y192027D01*
X105093Y192801D01*
X107115Y192801D01*
X108982Y192027D01*
X110411Y190598D01*
X111185Y188731D01*
X111185Y186709D01*
X110411Y184842D01*
X108982Y183413D01*
X107115Y182639D01*
X105093Y182639D01*
G37*
%LPD*%
%LPC*%
G36*
X79733Y220949D02*
X79733Y220949D01*
X77865Y221723D01*
X76436Y223152D01*
X75663Y225019D01*
X75663Y227041D01*
X76436Y228908D01*
X77865Y230337D01*
X79733Y231111D01*
X81754Y231111D01*
X83621Y230337D01*
X85051Y228908D01*
X85824Y227041D01*
X85824Y225019D01*
X85051Y223152D01*
X83621Y221723D01*
X81754Y220949D01*
X79733Y220949D01*
G37*
%LPD*%
%LPC*%
G36*
X207584Y163669D02*
X207584Y163669D01*
X205716Y164443D01*
X204287Y165872D01*
X203514Y167739D01*
X203514Y169761D01*
X204287Y171628D01*
X205716Y173057D01*
X207584Y173831D01*
X209605Y173831D01*
X211472Y173057D01*
X212902Y171628D01*
X213675Y169761D01*
X213675Y167739D01*
X212902Y165872D01*
X211472Y164443D01*
X209605Y163669D01*
X207584Y163669D01*
G37*
%LPD*%
%LPC*%
G36*
X23563Y160027D02*
X23563Y160027D01*
X21696Y160801D01*
X20267Y162230D01*
X19493Y164097D01*
X19493Y166119D01*
X20267Y167986D01*
X21696Y169415D01*
X23563Y170189D01*
X25585Y170189D01*
X27452Y169415D01*
X28881Y167986D01*
X29655Y166119D01*
X29655Y164097D01*
X28881Y162230D01*
X27452Y160801D01*
X25585Y160027D01*
X23563Y160027D01*
G37*
%LPD*%
%LPC*%
G36*
X106155Y158149D02*
X106155Y158149D01*
X104288Y158922D01*
X102859Y160351D01*
X102085Y162219D01*
X102085Y164240D01*
X102859Y166107D01*
X104288Y167537D01*
X106155Y168310D01*
X108176Y168310D01*
X110044Y167537D01*
X111473Y166107D01*
X112247Y164240D01*
X112247Y162219D01*
X111473Y160351D01*
X110044Y158922D01*
X108176Y158149D01*
X106155Y158149D01*
G37*
%LPD*%
%LPC*%
G36*
X131291Y186831D02*
X131291Y186831D01*
X129424Y187604D01*
X127995Y189033D01*
X127221Y190901D01*
X127221Y192922D01*
X127995Y194789D01*
X129424Y196219D01*
X131291Y196992D01*
X133313Y196992D01*
X135180Y196219D01*
X136609Y194789D01*
X137383Y192922D01*
X137383Y190901D01*
X136609Y189033D01*
X135180Y187604D01*
X133313Y186831D01*
X131291Y186831D01*
G37*
%LPD*%
%LPC*%
G36*
X137042Y227133D02*
X137042Y227133D01*
X135175Y227906D01*
X133745Y229335D01*
X132972Y231203D01*
X132972Y233224D01*
X133745Y235091D01*
X135175Y236521D01*
X137042Y237294D01*
X139063Y237294D01*
X140931Y236521D01*
X142360Y235091D01*
X143133Y233224D01*
X143133Y231203D01*
X142360Y229335D01*
X140931Y227906D01*
X139063Y227133D01*
X137042Y227133D01*
G37*
%LPD*%
%LPC*%
G36*
X44137Y131960D02*
X44137Y131960D01*
X42270Y132734D01*
X40841Y134163D01*
X40067Y136030D01*
X40067Y138052D01*
X40841Y139919D01*
X42270Y141348D01*
X44137Y142122D01*
X46159Y142122D01*
X48026Y141348D01*
X49455Y139919D01*
X50229Y138052D01*
X50229Y136030D01*
X49455Y134163D01*
X48026Y132734D01*
X46159Y131960D01*
X44137Y131960D01*
G37*
%LPD*%
%LPC*%
G36*
X155327Y193445D02*
X155327Y193445D01*
X153460Y194219D01*
X152030Y195648D01*
X151257Y197515D01*
X151257Y199537D01*
X152030Y201404D01*
X153460Y202833D01*
X155327Y203607D01*
X157348Y203607D01*
X159216Y202833D01*
X160645Y201404D01*
X161418Y199537D01*
X161418Y197515D01*
X160645Y195648D01*
X159216Y194219D01*
X157348Y193445D01*
X155327Y193445D01*
G37*
%LPD*%
%LPC*%
G36*
X84533Y129929D02*
X84533Y129929D01*
X82666Y130702D01*
X81237Y132132D01*
X80463Y133999D01*
X80463Y136020D01*
X81237Y137888D01*
X82666Y139317D01*
X84533Y140090D01*
X86555Y140090D01*
X88422Y139317D01*
X89851Y137888D01*
X90625Y136020D01*
X90625Y133999D01*
X89851Y132132D01*
X88422Y130702D01*
X86555Y129929D01*
X84533Y129929D01*
G37*
%LPD*%
%LPC*%
G36*
X217633Y125035D02*
X217633Y125035D01*
X215766Y125809D01*
X214337Y127238D01*
X213563Y129105D01*
X213563Y131127D01*
X214337Y132994D01*
X215766Y134423D01*
X217633Y135197D01*
X219655Y135197D01*
X221522Y134423D01*
X222951Y132994D01*
X223725Y131127D01*
X223725Y129105D01*
X222951Y127238D01*
X221522Y125809D01*
X219655Y125035D01*
X217633Y125035D01*
G37*
%LPD*%
%LPC*%
G36*
X138815Y124843D02*
X138815Y124843D01*
X136948Y125617D01*
X135519Y127046D01*
X134745Y128914D01*
X134745Y130935D01*
X135519Y132802D01*
X136948Y134231D01*
X138815Y135005D01*
X140837Y135005D01*
X142704Y134231D01*
X144133Y132802D01*
X144907Y130935D01*
X144907Y128914D01*
X144133Y127046D01*
X142704Y125617D01*
X140837Y124843D01*
X138815Y124843D01*
G37*
%LPD*%
%LPC*%
G36*
X60901Y124467D02*
X60901Y124467D01*
X59034Y125241D01*
X57605Y126670D01*
X56831Y128537D01*
X56831Y130559D01*
X57605Y132426D01*
X59034Y133855D01*
X60901Y134629D01*
X62923Y134629D01*
X64790Y133855D01*
X66219Y132426D01*
X66993Y130559D01*
X66993Y128537D01*
X66219Y126670D01*
X64790Y125241D01*
X62923Y124467D01*
X60901Y124467D01*
G37*
%LPD*%
%LPC*%
G36*
X154407Y115361D02*
X154407Y115361D01*
X152540Y116134D01*
X151111Y117564D01*
X150337Y119431D01*
X150337Y121452D01*
X151111Y123320D01*
X152540Y124749D01*
X154407Y125522D01*
X156429Y125522D01*
X158296Y124749D01*
X159725Y123320D01*
X160499Y121452D01*
X160499Y119431D01*
X159725Y117564D01*
X158296Y116134D01*
X156429Y115361D01*
X154407Y115361D01*
G37*
%LPD*%
%LPC*%
G36*
X216011Y110772D02*
X216011Y110772D01*
X214143Y111546D01*
X212714Y112975D01*
X211941Y114842D01*
X211941Y116864D01*
X212714Y118731D01*
X214143Y120160D01*
X216011Y120934D01*
X218032Y120934D01*
X219899Y120160D01*
X221329Y118731D01*
X222102Y116864D01*
X222102Y114842D01*
X221329Y112975D01*
X219899Y111546D01*
X218032Y110772D01*
X216011Y110772D01*
G37*
%LPD*%
%LPC*%
G36*
X20628Y194452D02*
X20628Y194452D01*
X18760Y195225D01*
X17331Y196654D01*
X16558Y198522D01*
X16558Y200543D01*
X17331Y202410D01*
X18760Y203840D01*
X20628Y204613D01*
X22649Y204613D01*
X24516Y203840D01*
X25946Y202410D01*
X26719Y200543D01*
X26719Y198522D01*
X25946Y196654D01*
X24516Y195225D01*
X22649Y194452D01*
X20628Y194452D01*
G37*
%LPD*%
%LPC*%
G36*
X106712Y220783D02*
X106712Y220783D01*
X104845Y221557D01*
X103415Y222986D01*
X102642Y224853D01*
X102642Y226875D01*
X103415Y228742D01*
X104845Y230171D01*
X106712Y230945D01*
X108733Y230945D01*
X110601Y230171D01*
X112030Y228742D01*
X112803Y226875D01*
X112803Y224853D01*
X112030Y222986D01*
X110601Y221557D01*
X108733Y220783D01*
X106712Y220783D01*
G37*
%LPD*%
%LPC*%
G36*
X179490Y242415D02*
X179490Y242415D01*
X177622Y243188D01*
X176193Y244618D01*
X175420Y246485D01*
X175420Y248506D01*
X176193Y250374D01*
X177622Y251803D01*
X179490Y252576D01*
X181511Y252576D01*
X183378Y251803D01*
X184808Y250374D01*
X185581Y248506D01*
X185581Y246485D01*
X184808Y244618D01*
X183378Y243188D01*
X181511Y242415D01*
X179490Y242415D01*
G37*
%LPD*%
%LPC*%
G36*
X147250Y242555D02*
X147250Y242555D01*
X145383Y243328D01*
X143954Y244758D01*
X143180Y246625D01*
X143180Y248646D01*
X143954Y250514D01*
X145383Y251943D01*
X147250Y252716D01*
X149272Y252716D01*
X151139Y251943D01*
X152568Y250514D01*
X153342Y248646D01*
X153342Y246625D01*
X152568Y244758D01*
X151139Y243328D01*
X149272Y242555D01*
X147250Y242555D01*
G37*
%LPD*%
%LPC*%
G36*
X259569Y100039D02*
X259569Y100039D01*
X257702Y100813D01*
X256273Y102242D01*
X255499Y104109D01*
X255499Y106131D01*
X256273Y107998D01*
X257702Y109427D01*
X259569Y110201D01*
X261591Y110201D01*
X263458Y109427D01*
X264887Y107998D01*
X265661Y106131D01*
X265661Y104109D01*
X264887Y102242D01*
X263458Y100813D01*
X261591Y100039D01*
X259569Y100039D01*
G37*
%LPD*%
%LPC*%
G36*
X176886Y99252D02*
X176886Y99252D01*
X175018Y100025D01*
X173589Y101454D01*
X172816Y103322D01*
X172816Y105343D01*
X173589Y107210D01*
X175018Y108640D01*
X176886Y109413D01*
X178907Y109413D01*
X180774Y108640D01*
X182204Y107210D01*
X182977Y105343D01*
X182977Y103322D01*
X182204Y101454D01*
X180774Y100025D01*
X178907Y99252D01*
X176886Y99252D01*
G37*
%LPD*%
%LPC*%
G36*
X86910Y88532D02*
X86910Y88532D01*
X85042Y89306D01*
X83613Y90735D01*
X82840Y92602D01*
X82840Y94624D01*
X83613Y96491D01*
X85042Y97920D01*
X86910Y98694D01*
X88931Y98694D01*
X90798Y97920D01*
X92228Y96491D01*
X93001Y94624D01*
X93001Y92602D01*
X92228Y90735D01*
X90798Y89306D01*
X88931Y88532D01*
X86910Y88532D01*
G37*
%LPD*%
%LPC*%
G36*
X215607Y85262D02*
X215607Y85262D01*
X213740Y86036D01*
X212311Y87465D01*
X211537Y89332D01*
X211537Y91354D01*
X212311Y93221D01*
X213740Y94650D01*
X215607Y95424D01*
X217629Y95424D01*
X219496Y94650D01*
X220925Y93221D01*
X221699Y91354D01*
X221699Y89332D01*
X220925Y87465D01*
X219496Y86036D01*
X217629Y85262D01*
X215607Y85262D01*
G37*
%LPD*%
%LPC*%
G36*
X184342Y77517D02*
X184342Y77517D01*
X182475Y78291D01*
X181046Y79720D01*
X180272Y81587D01*
X180272Y83609D01*
X181046Y85476D01*
X182475Y86905D01*
X184342Y87679D01*
X186364Y87679D01*
X188231Y86905D01*
X189660Y85476D01*
X190434Y83609D01*
X190434Y81587D01*
X189660Y79720D01*
X188231Y78291D01*
X186364Y77517D01*
X184342Y77517D01*
G37*
%LPD*%
%LPC*%
G36*
X157041Y289611D02*
X157041Y289611D01*
X155173Y290385D01*
X153744Y291814D01*
X152970Y293681D01*
X152970Y295703D01*
X153744Y297570D01*
X155173Y298999D01*
X157041Y299773D01*
X159062Y299773D01*
X160929Y298999D01*
X162358Y297570D01*
X163132Y295703D01*
X163132Y293681D01*
X162358Y291814D01*
X160929Y290385D01*
X159062Y289611D01*
X157041Y289611D01*
G37*
%LPD*%
%LPC*%
G36*
X137434Y199232D02*
X137434Y199232D01*
X135566Y200006D01*
X134137Y201435D01*
X133364Y203302D01*
X133364Y205323D01*
X134137Y207191D01*
X135566Y208620D01*
X137434Y209394D01*
X139455Y209394D01*
X141322Y208620D01*
X142752Y207191D01*
X143525Y205323D01*
X143525Y203302D01*
X142752Y201435D01*
X141322Y200006D01*
X139455Y199232D01*
X137434Y199232D01*
G37*
%LPD*%
%LPC*%
G36*
X248569Y13539D02*
X248569Y13539D01*
X246702Y14313D01*
X245273Y15742D01*
X244499Y17609D01*
X244499Y19631D01*
X245273Y21498D01*
X246702Y22927D01*
X248569Y23701D01*
X250591Y23701D01*
X252458Y22927D01*
X253887Y21498D01*
X254661Y19631D01*
X254661Y17609D01*
X253887Y15742D01*
X252458Y14313D01*
X250591Y13539D01*
X248569Y13539D01*
G37*
%LPD*%
%LPC*%
G36*
X162026Y206194D02*
X162026Y206194D01*
X160158Y206968D01*
X158729Y208397D01*
X157955Y210264D01*
X157955Y212285D01*
X158729Y214153D01*
X160158Y215582D01*
X162026Y216356D01*
X164047Y216356D01*
X165914Y215582D01*
X167343Y214153D01*
X168117Y212285D01*
X168117Y210264D01*
X167343Y208397D01*
X165914Y206968D01*
X164047Y206194D01*
X162026Y206194D01*
G37*
%LPD*%
%LPC*%
G36*
X152856Y26575D02*
X152856Y26575D01*
X150989Y27348D01*
X149559Y28778D01*
X148786Y30645D01*
X148786Y32666D01*
X149559Y34534D01*
X150989Y35963D01*
X152856Y36736D01*
X154877Y36736D01*
X156745Y35963D01*
X158174Y34534D01*
X158947Y32666D01*
X158947Y30645D01*
X158174Y28778D01*
X156745Y27348D01*
X154877Y26575D01*
X152856Y26575D01*
G37*
%LPD*%
%LPC*%
G36*
X133073Y59901D02*
X133073Y59901D01*
X131206Y60674D01*
X129777Y62104D01*
X129003Y63971D01*
X129003Y65992D01*
X129777Y67860D01*
X131206Y69289D01*
X133073Y70062D01*
X135095Y70062D01*
X136962Y69289D01*
X138391Y67860D01*
X139165Y65992D01*
X139165Y63971D01*
X138391Y62104D01*
X136962Y60674D01*
X135095Y59901D01*
X133073Y59901D01*
G37*
%LPD*%
%LPC*%
G36*
X244789Y202315D02*
X244789Y202315D01*
X242921Y203089D01*
X241492Y204518D01*
X240719Y206385D01*
X240719Y208407D01*
X241492Y210274D01*
X242921Y211703D01*
X244789Y212477D01*
X246810Y212477D01*
X248677Y211703D01*
X250107Y210274D01*
X250880Y208407D01*
X250880Y206385D01*
X250107Y204518D01*
X248677Y203089D01*
X246810Y202315D01*
X244789Y202315D01*
G37*
%LPD*%
%LPC*%
G36*
X165917Y27479D02*
X165917Y27479D01*
X164050Y28253D01*
X162621Y29682D01*
X161847Y31549D01*
X161847Y33571D01*
X162621Y35438D01*
X164050Y36867D01*
X165917Y37641D01*
X167939Y37641D01*
X169806Y36867D01*
X171235Y35438D01*
X172009Y33571D01*
X172009Y31549D01*
X171235Y29682D01*
X169806Y28253D01*
X167939Y27479D01*
X165917Y27479D01*
G37*
%LPD*%
%LPC*%
G36*
X141485Y33829D02*
X141485Y33829D01*
X139618Y34603D01*
X138189Y36032D01*
X137415Y37899D01*
X137415Y39921D01*
X138189Y41788D01*
X139618Y43217D01*
X141485Y43991D01*
X143507Y43991D01*
X145374Y43217D01*
X146803Y41788D01*
X147577Y39921D01*
X147577Y37899D01*
X146803Y36032D01*
X145374Y34603D01*
X143507Y33829D01*
X141485Y33829D01*
G37*
%LPD*%
%LPC*%
G36*
X51503Y44957D02*
X51503Y44957D01*
X49636Y45731D01*
X48207Y47160D01*
X47433Y49027D01*
X47433Y51049D01*
X48207Y52916D01*
X49636Y54345D01*
X51503Y55119D01*
X53525Y55119D01*
X55392Y54345D01*
X56821Y52916D01*
X57595Y51049D01*
X57595Y49027D01*
X56821Y47160D01*
X55392Y45731D01*
X53525Y44957D01*
X51503Y44957D01*
G37*
%LPD*%
%LPC*%
G36*
X76395Y44957D02*
X76395Y44957D01*
X74528Y45731D01*
X73099Y47160D01*
X72325Y49027D01*
X72325Y51049D01*
X73099Y52916D01*
X74528Y54345D01*
X76395Y55119D01*
X78417Y55119D01*
X80284Y54345D01*
X81713Y52916D01*
X82487Y51049D01*
X82487Y49027D01*
X81713Y47160D01*
X80284Y45731D01*
X78417Y44957D01*
X76395Y44957D01*
G37*
%LPD*%
%LPC*%
G36*
X109784Y25488D02*
X109784Y25488D01*
X109784Y38249D01*
X110651Y38076D01*
X112206Y37433D01*
X113604Y36498D01*
X114794Y35308D01*
X115729Y33910D01*
X116372Y32355D01*
X116701Y30705D01*
X116701Y25488D01*
X109784Y25488D01*
G37*
%LPD*%
%LPC*%
G36*
X23384Y25488D02*
X23384Y25488D01*
X23384Y38249D01*
X24251Y38076D01*
X25806Y37433D01*
X27204Y36498D01*
X28394Y35308D01*
X29329Y33910D01*
X29972Y32355D01*
X30301Y30705D01*
X30301Y25488D01*
X23384Y25488D01*
G37*
%LPD*%
%LPC*%
G36*
X23384Y22240D02*
X23384Y22240D01*
X30301Y22240D01*
X30301Y17023D01*
X29972Y15373D01*
X29329Y13818D01*
X28394Y12420D01*
X27204Y11230D01*
X25806Y10295D01*
X24251Y9652D01*
X23384Y9479D01*
X23384Y22240D01*
G37*
%LPD*%
%LPC*%
G36*
X109784Y22240D02*
X109784Y22240D01*
X116701Y22240D01*
X116701Y17023D01*
X116372Y15373D01*
X115729Y13818D01*
X114794Y12420D01*
X113604Y11230D01*
X112206Y10295D01*
X110651Y9652D01*
X109784Y9479D01*
X109784Y22240D01*
G37*
%LPD*%
%LPC*%
G36*
X99619Y25488D02*
X99619Y25488D01*
X99619Y30705D01*
X99948Y32355D01*
X100591Y33910D01*
X101526Y35308D01*
X102716Y36498D01*
X104114Y37433D01*
X105669Y38076D01*
X106536Y38249D01*
X106536Y25488D01*
X99619Y25488D01*
G37*
%LPD*%
%LPC*%
G36*
X105669Y9652D02*
X105669Y9652D01*
X104114Y10295D01*
X102716Y11230D01*
X101526Y12420D01*
X100591Y13818D01*
X99948Y15373D01*
X99619Y17023D01*
X99619Y22240D01*
X106536Y22240D01*
X106536Y9479D01*
X105669Y9652D01*
G37*
%LPD*%
%LPC*%
G36*
X19269Y9652D02*
X19269Y9652D01*
X17714Y10295D01*
X16316Y11230D01*
X15126Y12420D01*
X14191Y13818D01*
X13548Y15373D01*
X13219Y17023D01*
X13219Y22240D01*
X20136Y22240D01*
X20136Y9479D01*
X19269Y9652D01*
G37*
%LPD*%
%LPC*%
G36*
X109784Y63738D02*
X109784Y63738D01*
X109784Y76075D01*
X110590Y75915D01*
X112106Y75287D01*
X113471Y74375D01*
X114631Y73215D01*
X115543Y71850D01*
X116171Y70334D01*
X116491Y68724D01*
X116491Y63738D01*
X109784Y63738D01*
G37*
%LPD*%
%LPC*%
G36*
X109784Y60490D02*
X109784Y60490D01*
X116491Y60490D01*
X116491Y55504D01*
X116171Y53894D01*
X115543Y52378D01*
X114631Y51013D01*
X113471Y49853D01*
X112106Y48941D01*
X110590Y48313D01*
X109784Y48153D01*
X109784Y60490D01*
G37*
%LPD*%
%LPC*%
G36*
X99829Y63738D02*
X99829Y63738D01*
X99829Y68724D01*
X100149Y70334D01*
X100777Y71850D01*
X101689Y73215D01*
X102849Y74375D01*
X104214Y75287D01*
X105730Y75915D01*
X106536Y76075D01*
X106536Y63738D01*
X99829Y63738D01*
G37*
%LPD*%
%LPC*%
G36*
X13429Y63738D02*
X13429Y63738D01*
X13429Y68724D01*
X13749Y70334D01*
X14377Y71850D01*
X15289Y73215D01*
X16449Y74375D01*
X17814Y75287D01*
X19330Y75915D01*
X20136Y76075D01*
X20136Y63738D01*
X13429Y63738D01*
G37*
%LPD*%
%LPC*%
G36*
X19330Y48313D02*
X19330Y48313D01*
X17814Y48941D01*
X16449Y49853D01*
X15289Y51013D01*
X14377Y52378D01*
X13749Y53894D01*
X13429Y55504D01*
X13429Y60490D01*
X20136Y60490D01*
X20136Y48153D01*
X19330Y48313D01*
G37*
%LPD*%
%LPC*%
G36*
X194669Y351510D02*
X194669Y351510D01*
X200690Y351510D01*
X200679Y351456D01*
X200009Y349838D01*
X199036Y348382D01*
X197797Y347143D01*
X196341Y346170D01*
X194723Y345500D01*
X194669Y345489D01*
X194669Y351510D01*
G37*
%LPD*%
%LPC*%
G36*
X189537Y345500D02*
X189537Y345500D01*
X187919Y346170D01*
X186462Y347143D01*
X185224Y348382D01*
X184251Y349838D01*
X183581Y351456D01*
X183570Y351510D01*
X189591Y351510D01*
X189591Y345489D01*
X189537Y345500D01*
G37*
%LPD*%
D10*
X115930Y354049D03*
X141330Y354049D03*
X166730Y354049D03*
D11*
X21760Y67904D02*
X21760Y56324D01*
X108160Y56324D02*
X108160Y67904D01*
D12*
X21760Y29864D02*
X21760Y17864D01*
X108160Y17864D02*
X108160Y29864D01*
D10*
X90530Y354049D03*
X192130Y354049D03*
D13*
X152071Y101594D03*
D14*
X224180Y18740D03*
X245300Y105320D03*
X169440Y159560D03*
X113903Y128197D03*
X159876Y335681D03*
X125295Y336310D03*
X98111Y257390D03*
X36636Y18571D03*
X65220Y12825D03*
X269716Y11549D03*
X64454Y314180D03*
X163070Y62405D03*
X161701Y319931D03*
X226131Y72733D03*
X83192Y344615D03*
X189082Y21937D03*
X48410Y81115D03*
X21321Y79976D03*
X22394Y244640D03*
X95977Y45450D03*
X255520Y150428D03*
X12628Y334144D03*
X57594Y165108D03*
X65944Y144058D03*
X194474Y267738D03*
X127824Y100646D03*
X94548Y110631D03*
X53784Y137168D03*
X115095Y314526D03*
X132116Y252184D03*
X22460Y254853D03*
X107524Y239023D03*
X93801Y215692D03*
X243118Y25169D03*
X121208Y11779D03*
X203303Y356909D03*
X163024Y306697D03*
X194425Y277317D03*
X116736Y46354D03*
X147632Y11494D03*
D15*
X32864Y23864D02*
X21760Y23864D01*
X32864Y23864D02*
X34000Y25000D01*
X99830Y25000D01*
D14*
X165360Y106965D03*
X162822Y257339D03*
X107105Y257449D03*
X109654Y110669D03*
X12989Y291369D03*
X22957Y119618D03*
X122795Y51589D03*
X97585Y89576D03*
X167311Y99116D03*
X128828Y128312D03*
X185623Y39957D03*
X203781Y48742D03*
X148333Y115384D03*
X269804Y178566D03*
X194327Y296155D03*
X83494Y268049D03*
X31852Y255054D03*
X22119Y213634D03*
X269926Y221770D03*
X262214Y257273D03*
X270045Y257066D03*
X269997Y245395D03*
X269850Y234019D03*
X253964Y257397D03*
X36636Y28571D03*
X32156Y264897D03*
X32156Y274897D03*
X32156Y284897D03*
X42477Y296274D03*
X52477Y296274D03*
X83795Y277781D03*
X73866Y295992D03*
X83468Y296471D03*
X141819Y321235D03*
X253854Y267138D03*
X254001Y285903D03*
X254019Y276590D03*
X253871Y295684D03*
X240884Y295934D03*
X230154Y296097D03*
X219458Y295934D03*
X269998Y276260D03*
X194267Y286483D03*
X22195Y223793D03*
X22283Y234099D03*
X209007Y295961D03*
X268993Y337308D03*
X250288Y354962D03*
X92636Y28571D03*
X92636Y18571D03*
X65220Y30825D03*
X269810Y25009D03*
X269993Y72757D03*
X258035Y25016D03*
X104530Y120081D03*
X160325Y113331D03*
X133515Y109127D03*
X141396Y111379D03*
X167867Y91198D03*
X119330Y100270D03*
X110119Y100247D03*
X107767Y84930D03*
X182867Y95518D03*
X31678Y245311D03*
X41436Y245988D03*
X50831Y246109D03*
X60357Y245887D03*
X69540Y246109D03*
X78592Y246109D03*
X83533Y257585D03*
X269730Y211224D03*
X267442Y118087D03*
X238463Y121612D03*
X262032Y245567D03*
X240085Y245567D03*
X228901Y245223D03*
X208839Y245079D03*
X35040Y313959D03*
X12703Y313959D03*
X34905Y334144D03*
X35151Y356788D03*
X32659Y45450D03*
X97637Y344246D03*
X106106Y178993D03*
X163204Y219946D03*
X233367Y145323D03*
X194458Y257826D03*
X218807Y244915D03*
X212531Y147396D03*
X180489Y257162D03*
X194834Y245709D03*
X253933Y245420D03*
X74464Y152070D03*
X83665Y287073D03*
X236680Y18480D03*
X218644Y130116D03*
X106104Y187720D03*
X215046Y155881D03*
X29908Y108974D03*
X28892Y136914D03*
X36341Y182127D03*
X217021Y115853D03*
X91274Y314773D03*
D15*
X91036Y315011D01*
X91036Y354049D01*
D14*
X190797Y213258D03*
X80743Y226030D03*
X107723Y225864D03*
D15*
X91036Y354049D02*
X90530Y354049D01*
D14*
X138444Y204313D03*
X258936Y179015D03*
X200987Y320116D03*
D15*
X200664Y320116D02*
X166730Y354049D01*
X200664Y320116D02*
X200987Y320116D01*
D14*
X66230Y103894D03*
X85544Y135010D03*
X107166Y163229D03*
X64960Y114308D03*
X260580Y105120D03*
X249580Y18620D03*
X108075Y136727D03*
X64527Y75889D03*
X87920Y93613D03*
X108817Y148114D03*
X55770Y75961D03*
X132302Y191911D03*
X24574Y165108D03*
X61912Y129548D03*
X177896Y104332D03*
X180286Y219919D03*
X163036Y211275D03*
X26352Y100846D03*
X21638Y199532D03*
X139826Y129924D03*
X169548Y336711D03*
D15*
X152766Y342613D02*
X141330Y354049D01*
X169548Y338685D02*
X169548Y336711D01*
X169548Y338685D02*
X165620Y342613D01*
X152766Y342613D01*
D14*
X155418Y120442D03*
X115941Y342021D03*
D15*
X115941Y354038D01*
X115930Y354049D01*
D14*
X216618Y90343D03*
X45148Y137041D03*
X245234Y115000D03*
X216629Y7427D03*
X18129Y97631D03*
X14911Y41431D03*
X184487Y207162D03*
X194000Y57500D03*
X222435Y162649D03*
X246297Y178938D03*
X203744Y57500D03*
X208594Y168750D03*
X185353Y82598D03*
X136922Y100517D03*
X153867Y31656D03*
X166928Y32560D03*
X134084Y64982D03*
X142496Y38910D03*
X23313Y178124D03*
X29671Y188041D03*
X148261Y247636D03*
X180500Y247496D03*
X245799Y207396D03*
X77406Y50038D03*
X39660Y78340D03*
X52514Y50038D03*
X30416Y75954D03*
X158051Y294692D03*
X156338Y198526D03*
X20510Y128024D03*
X138053Y232213D03*
M02*
