G04 EAGLE Gerber RS-274X export*
G75*
%MOMM*%
%FSLAX34Y34*%
%LPD*%
%INSilkscreen Top*%
%IPPOS*%
%AMOC8*
5,1,8,0,0,1.08239X$1,22.5*%
G01*
%ADD10C,0.050800*%
%ADD11C,0.076200*%
%ADD12C,0.127000*%
%ADD13C,0.203200*%
%ADD14C,0.100000*%
%ADD15C,0.152400*%
%ADD16C,0.200000*%
%ADD17C,0.101600*%


D10*
X118246Y327564D02*
X117314Y328496D01*
X115450Y328496D01*
X114518Y327564D01*
X114518Y326632D01*
X115450Y325700D01*
X117314Y325700D01*
X118246Y324768D01*
X118246Y323835D01*
X117314Y322903D01*
X115450Y322903D01*
X114518Y323835D01*
X120131Y322903D02*
X120131Y326632D01*
X122927Y326632D01*
X123859Y325700D01*
X123859Y322903D01*
X126676Y326632D02*
X128540Y326632D01*
X129472Y325700D01*
X129472Y322903D01*
X126676Y322903D01*
X125744Y323835D01*
X126676Y324768D01*
X129472Y324768D01*
X131357Y326632D02*
X131357Y321039D01*
X131357Y326632D02*
X134153Y326632D01*
X135085Y325700D01*
X135085Y323835D01*
X134153Y322903D01*
X131357Y322903D01*
X136970Y321039D02*
X136970Y326632D01*
X139766Y326632D01*
X140698Y325700D01*
X140698Y323835D01*
X139766Y322903D01*
X136970Y322903D01*
X143515Y322903D02*
X145379Y322903D01*
X143515Y322903D02*
X142583Y323835D01*
X142583Y325700D01*
X143515Y326632D01*
X145379Y326632D01*
X146312Y325700D01*
X146312Y324768D01*
X142583Y324768D01*
X148196Y322903D02*
X148196Y326632D01*
X148196Y324768D02*
X150060Y326632D01*
X150993Y326632D01*
X155670Y328496D02*
X156602Y327564D01*
X155670Y328496D02*
X153806Y328496D01*
X152874Y327564D01*
X152874Y323835D01*
X153806Y322903D01*
X155670Y322903D01*
X156602Y323835D01*
X156602Y325700D01*
X154738Y325700D01*
X158487Y328496D02*
X158487Y322903D01*
X158487Y328496D02*
X161283Y328496D01*
X162215Y327564D01*
X162215Y325700D01*
X161283Y324768D01*
X158487Y324768D01*
X166896Y328496D02*
X167828Y327564D01*
X166896Y328496D02*
X165032Y328496D01*
X164100Y327564D01*
X164100Y326632D01*
X165032Y325700D01*
X166896Y325700D01*
X167828Y324768D01*
X167828Y323835D01*
X166896Y322903D01*
X165032Y322903D01*
X164100Y323835D01*
D11*
X215044Y108106D02*
X215044Y98106D01*
X215044Y108106D02*
X220044Y108106D01*
X220044Y98106D01*
X215044Y98106D01*
X98094Y169501D02*
X82894Y169501D01*
X82894Y177101D01*
X98094Y177101D01*
X98094Y169501D01*
X209900Y106995D02*
X209900Y96995D01*
X204900Y96995D01*
X204900Y106995D01*
X209900Y106995D01*
X153137Y209539D02*
X143137Y209539D01*
X143137Y214539D01*
X153137Y214539D01*
X153137Y209539D01*
X222792Y155958D02*
X232792Y155958D01*
X232792Y150958D01*
X222792Y150958D01*
X222792Y155958D01*
X98078Y183964D02*
X82878Y183964D01*
X82878Y191564D01*
X98078Y191564D01*
X98078Y183964D01*
X199740Y106995D02*
X199740Y96995D01*
X194740Y96995D01*
X194740Y106995D01*
X199740Y106995D01*
X125610Y174839D02*
X115610Y174839D01*
X115610Y179839D01*
X125610Y179839D01*
X125610Y174839D01*
X98264Y155187D02*
X83064Y155187D01*
X83064Y162787D01*
X98264Y162787D01*
X98264Y155187D01*
X98179Y140959D02*
X82979Y140959D01*
X82979Y148559D01*
X98179Y148559D01*
X98179Y140959D01*
X241035Y144673D02*
X251035Y144673D01*
X251035Y139673D01*
X241035Y139673D01*
X241035Y144673D01*
X261199Y139633D02*
X271199Y139633D01*
X261199Y139633D02*
X261199Y144633D01*
X271199Y144633D01*
X271199Y139633D01*
D12*
X239986Y149437D02*
X239986Y165437D01*
X271986Y165437D01*
X271986Y149437D01*
X239986Y149437D01*
D13*
X199440Y129560D02*
X195456Y129560D01*
X199440Y129560D02*
X199440Y133544D01*
X143424Y129560D02*
X139440Y129560D01*
X139440Y133544D01*
X139440Y189560D02*
X143424Y189560D01*
X139440Y189560D02*
X139440Y185576D01*
X195456Y189560D02*
X199440Y189560D01*
X199440Y185576D01*
X199440Y133544D02*
X195456Y129560D01*
D12*
X101465Y93482D02*
X101467Y93561D01*
X101473Y93640D01*
X101483Y93719D01*
X101496Y93797D01*
X101514Y93874D01*
X101536Y93950D01*
X101561Y94025D01*
X101590Y94099D01*
X101622Y94171D01*
X101658Y94241D01*
X101698Y94310D01*
X101741Y94377D01*
X101787Y94441D01*
X101837Y94503D01*
X101889Y94562D01*
X101944Y94619D01*
X102002Y94673D01*
X102063Y94724D01*
X102126Y94771D01*
X102191Y94816D01*
X102259Y94857D01*
X102329Y94895D01*
X102400Y94929D01*
X102473Y94960D01*
X102547Y94987D01*
X102623Y95011D01*
X102700Y95030D01*
X102777Y95046D01*
X102856Y95058D01*
X102934Y95066D01*
X103013Y95070D01*
X103093Y95070D01*
X103172Y95066D01*
X103250Y95058D01*
X103329Y95046D01*
X103406Y95030D01*
X103483Y95011D01*
X103559Y94987D01*
X103633Y94960D01*
X103706Y94929D01*
X103777Y94895D01*
X103847Y94857D01*
X103915Y94816D01*
X103980Y94771D01*
X104043Y94724D01*
X104104Y94673D01*
X104162Y94619D01*
X104217Y94562D01*
X104269Y94503D01*
X104319Y94441D01*
X104365Y94377D01*
X104408Y94310D01*
X104448Y94241D01*
X104484Y94171D01*
X104516Y94099D01*
X104545Y94025D01*
X104570Y93950D01*
X104592Y93874D01*
X104610Y93797D01*
X104623Y93719D01*
X104633Y93640D01*
X104639Y93561D01*
X104641Y93482D01*
X104639Y93403D01*
X104633Y93324D01*
X104623Y93245D01*
X104610Y93167D01*
X104592Y93090D01*
X104570Y93014D01*
X104545Y92939D01*
X104516Y92865D01*
X104484Y92793D01*
X104448Y92723D01*
X104408Y92654D01*
X104365Y92587D01*
X104319Y92523D01*
X104269Y92461D01*
X104217Y92402D01*
X104162Y92345D01*
X104104Y92291D01*
X104043Y92240D01*
X103980Y92193D01*
X103915Y92148D01*
X103847Y92107D01*
X103777Y92069D01*
X103706Y92035D01*
X103633Y92004D01*
X103559Y91977D01*
X103483Y91953D01*
X103406Y91934D01*
X103329Y91918D01*
X103250Y91906D01*
X103172Y91898D01*
X103093Y91894D01*
X103013Y91894D01*
X102934Y91898D01*
X102856Y91906D01*
X102777Y91918D01*
X102700Y91934D01*
X102623Y91953D01*
X102547Y91977D01*
X102473Y92004D01*
X102400Y92035D01*
X102329Y92069D01*
X102259Y92107D01*
X102191Y92148D01*
X102126Y92193D01*
X102063Y92240D01*
X102002Y92291D01*
X101944Y92345D01*
X101889Y92402D01*
X101837Y92461D01*
X101787Y92523D01*
X101741Y92587D01*
X101698Y92654D01*
X101658Y92723D01*
X101622Y92793D01*
X101590Y92865D01*
X101561Y92939D01*
X101536Y93014D01*
X101514Y93090D01*
X101496Y93167D01*
X101483Y93245D01*
X101473Y93324D01*
X101467Y93403D01*
X101465Y93482D01*
X106228Y83957D02*
X74478Y83957D01*
X74478Y96657D01*
X106228Y96657D01*
X106228Y83957D01*
D11*
X193472Y38170D02*
X203472Y38170D01*
X193472Y38170D02*
X193472Y43170D01*
X203472Y43170D01*
X203472Y38170D01*
D14*
X179370Y79755D02*
X179372Y79818D01*
X179378Y79880D01*
X179388Y79942D01*
X179401Y80004D01*
X179419Y80064D01*
X179440Y80123D01*
X179465Y80181D01*
X179494Y80237D01*
X179526Y80291D01*
X179561Y80343D01*
X179599Y80392D01*
X179641Y80440D01*
X179685Y80484D01*
X179733Y80526D01*
X179782Y80564D01*
X179834Y80599D01*
X179888Y80631D01*
X179944Y80660D01*
X180002Y80685D01*
X180061Y80706D01*
X180121Y80724D01*
X180183Y80737D01*
X180245Y80747D01*
X180307Y80753D01*
X180370Y80755D01*
X180433Y80753D01*
X180495Y80747D01*
X180557Y80737D01*
X180619Y80724D01*
X180679Y80706D01*
X180738Y80685D01*
X180796Y80660D01*
X180852Y80631D01*
X180906Y80599D01*
X180958Y80564D01*
X181007Y80526D01*
X181055Y80484D01*
X181099Y80440D01*
X181141Y80392D01*
X181179Y80343D01*
X181214Y80291D01*
X181246Y80237D01*
X181275Y80181D01*
X181300Y80123D01*
X181321Y80064D01*
X181339Y80004D01*
X181352Y79942D01*
X181362Y79880D01*
X181368Y79818D01*
X181370Y79755D01*
X181368Y79692D01*
X181362Y79630D01*
X181352Y79568D01*
X181339Y79506D01*
X181321Y79446D01*
X181300Y79387D01*
X181275Y79329D01*
X181246Y79273D01*
X181214Y79219D01*
X181179Y79167D01*
X181141Y79118D01*
X181099Y79070D01*
X181055Y79026D01*
X181007Y78984D01*
X180958Y78946D01*
X180906Y78911D01*
X180852Y78879D01*
X180796Y78850D01*
X180738Y78825D01*
X180679Y78804D01*
X180619Y78786D01*
X180557Y78773D01*
X180495Y78763D01*
X180433Y78757D01*
X180370Y78755D01*
X180307Y78757D01*
X180245Y78763D01*
X180183Y78773D01*
X180121Y78786D01*
X180061Y78804D01*
X180002Y78825D01*
X179944Y78850D01*
X179888Y78879D01*
X179834Y78911D01*
X179782Y78946D01*
X179733Y78984D01*
X179685Y79026D01*
X179641Y79070D01*
X179599Y79118D01*
X179561Y79167D01*
X179526Y79219D01*
X179494Y79273D01*
X179465Y79329D01*
X179440Y79387D01*
X179419Y79446D01*
X179401Y79506D01*
X179388Y79568D01*
X179378Y79630D01*
X179372Y79692D01*
X179370Y79755D01*
D15*
X142570Y82905D02*
X142570Y41905D01*
X183570Y41905D01*
X183570Y82905D01*
X142570Y82905D01*
D11*
X133264Y28504D02*
X133264Y18504D01*
X128264Y18504D01*
X128264Y28504D01*
X133264Y28504D01*
X162774Y22364D02*
X162774Y12364D01*
X157774Y12364D01*
X157774Y22364D01*
X162774Y22364D01*
X152243Y16982D02*
X142243Y16982D01*
X142243Y21982D01*
X152243Y21982D01*
X152243Y16982D01*
X133185Y37466D02*
X133185Y47466D01*
X133185Y37466D02*
X128185Y37466D01*
X128185Y47466D01*
X133185Y47466D01*
X194900Y73240D02*
X204900Y73240D01*
X194900Y73240D02*
X194900Y78240D01*
X204900Y78240D01*
X204900Y73240D01*
X204900Y63080D02*
X194900Y63080D01*
X194900Y68080D01*
X204900Y68080D01*
X204900Y63080D01*
X204900Y84480D02*
X194900Y84480D01*
X194900Y89480D01*
X204900Y89480D01*
X204900Y84480D01*
X134799Y76662D02*
X114799Y76662D01*
X114799Y92662D01*
X134799Y92662D01*
X134799Y76662D01*
X130195Y89162D02*
X130197Y89231D01*
X130203Y89299D01*
X130213Y89367D01*
X130226Y89435D01*
X130244Y89501D01*
X130265Y89567D01*
X130290Y89631D01*
X130319Y89693D01*
X130351Y89754D01*
X130386Y89813D01*
X130425Y89870D01*
X130467Y89924D01*
X130512Y89976D01*
X130560Y90025D01*
X130611Y90072D01*
X130664Y90115D01*
X130719Y90156D01*
X130777Y90193D01*
X130837Y90227D01*
X130899Y90257D01*
X130962Y90284D01*
X131027Y90307D01*
X131093Y90326D01*
X131160Y90342D01*
X131228Y90354D01*
X131296Y90362D01*
X131365Y90366D01*
X131433Y90366D01*
X131502Y90362D01*
X131570Y90354D01*
X131638Y90342D01*
X131705Y90326D01*
X131771Y90307D01*
X131836Y90284D01*
X131899Y90257D01*
X131961Y90227D01*
X132021Y90193D01*
X132079Y90156D01*
X132134Y90115D01*
X132187Y90072D01*
X132238Y90025D01*
X132286Y89976D01*
X132331Y89924D01*
X132373Y89870D01*
X132412Y89813D01*
X132447Y89754D01*
X132479Y89693D01*
X132508Y89631D01*
X132533Y89567D01*
X132554Y89501D01*
X132572Y89435D01*
X132585Y89367D01*
X132595Y89299D01*
X132601Y89231D01*
X132603Y89162D01*
X132601Y89093D01*
X132595Y89025D01*
X132585Y88957D01*
X132572Y88889D01*
X132554Y88823D01*
X132533Y88757D01*
X132508Y88693D01*
X132479Y88631D01*
X132447Y88570D01*
X132412Y88511D01*
X132373Y88454D01*
X132331Y88400D01*
X132286Y88348D01*
X132238Y88299D01*
X132187Y88252D01*
X132134Y88209D01*
X132079Y88168D01*
X132021Y88131D01*
X131961Y88097D01*
X131899Y88067D01*
X131836Y88040D01*
X131771Y88017D01*
X131705Y87998D01*
X131638Y87982D01*
X131570Y87970D01*
X131502Y87962D01*
X131433Y87958D01*
X131365Y87958D01*
X131296Y87962D01*
X131228Y87970D01*
X131160Y87982D01*
X131093Y87998D01*
X131027Y88017D01*
X130962Y88040D01*
X130899Y88067D01*
X130837Y88097D01*
X130777Y88131D01*
X130719Y88168D01*
X130664Y88209D01*
X130611Y88252D01*
X130560Y88299D01*
X130512Y88348D01*
X130467Y88400D01*
X130425Y88454D01*
X130386Y88511D01*
X130351Y88570D01*
X130319Y88631D01*
X130290Y88693D01*
X130265Y88757D01*
X130244Y88823D01*
X130226Y88889D01*
X130213Y88957D01*
X130203Y89025D01*
X130197Y89093D01*
X130195Y89162D01*
X240150Y100260D02*
X240150Y110260D01*
X240150Y100260D02*
X235150Y100260D01*
X235150Y110260D01*
X240150Y110260D01*
X255390Y110260D02*
X255390Y100260D01*
X250390Y100260D01*
X250390Y110260D01*
X255390Y110260D01*
X270630Y110260D02*
X270630Y100260D01*
X265630Y100260D01*
X265630Y110260D01*
X270630Y110260D01*
X12676Y105244D02*
X12676Y115244D01*
X17676Y115244D01*
X17676Y105244D01*
X12676Y105244D01*
X256539Y186652D02*
X256539Y196652D01*
X261539Y196652D01*
X261539Y186652D01*
X256539Y186652D01*
D14*
X213080Y27640D02*
X213080Y7640D01*
X213080Y27640D02*
X213080Y87640D01*
X273080Y87640D01*
X273080Y7640D01*
X233080Y7640D01*
X213080Y7640D01*
X233080Y7640D02*
X213080Y27640D01*
D12*
X141613Y330755D02*
X132088Y330755D01*
X136851Y345043D02*
X140026Y348218D01*
X136851Y345043D02*
X133676Y348218D01*
D15*
X140851Y344630D02*
X140851Y354630D01*
X140851Y344630D02*
X140851Y338630D01*
X132851Y338630D01*
X132851Y354630D02*
X140851Y354630D01*
X132851Y354630D02*
X132851Y344630D01*
X132851Y338630D01*
X132851Y344630D02*
X140851Y344630D01*
D12*
X144788Y330755D02*
X154313Y330755D01*
X149551Y345043D02*
X152726Y348218D01*
X149551Y345043D02*
X146376Y348218D01*
D15*
X153551Y344630D02*
X153551Y354630D01*
X153551Y344630D02*
X153551Y338630D01*
X145551Y338630D01*
X145551Y354630D02*
X153551Y354630D01*
X145551Y354630D02*
X145551Y344630D01*
X145551Y338630D01*
X145551Y344630D02*
X153551Y344630D01*
D11*
X126464Y145618D02*
X116464Y145618D01*
X116464Y150618D01*
X126464Y150618D01*
X126464Y145618D01*
X126490Y134446D02*
X116490Y134446D01*
X116490Y139446D01*
X126490Y139446D01*
X126490Y134446D01*
X86470Y112744D02*
X76470Y112744D01*
X86470Y112744D02*
X86470Y107744D01*
X76470Y107744D01*
X76470Y112744D01*
X76216Y123238D02*
X86216Y123238D01*
X76216Y123238D02*
X76216Y128238D01*
X86216Y128238D01*
X86216Y123238D01*
X17676Y178650D02*
X17676Y188650D01*
X17676Y178650D02*
X12676Y178650D01*
X12676Y188650D01*
X17676Y188650D01*
X17676Y152074D02*
X17676Y142074D01*
X12676Y142074D01*
X12676Y152074D01*
X17676Y152074D01*
X64746Y159600D02*
X64746Y169600D01*
X69746Y169600D01*
X69746Y159600D01*
X64746Y159600D01*
X121651Y344170D02*
X121651Y354170D01*
X126651Y354170D01*
X126651Y344170D01*
X121651Y344170D01*
X159751Y344170D02*
X159751Y354170D01*
X164751Y354170D01*
X164751Y344170D01*
X159751Y344170D01*
X68888Y87137D02*
X58888Y87137D01*
X58888Y92137D01*
X68888Y92137D01*
X68888Y87137D01*
X143256Y242655D02*
X153256Y242655D01*
X153256Y237655D01*
X143256Y237655D01*
X143256Y242655D01*
X273122Y196667D02*
X273122Y186667D01*
X268122Y186667D01*
X268122Y196667D01*
X273122Y196667D01*
X153397Y222500D02*
X143397Y222500D01*
X143397Y227500D01*
X153397Y227500D01*
X153397Y222500D01*
X243990Y196795D02*
X243990Y186795D01*
X243990Y196795D02*
X248990Y196795D01*
X248990Y186795D01*
X243990Y186795D01*
X28479Y87030D02*
X18479Y87030D01*
X18479Y92030D01*
X28479Y92030D01*
X28479Y87030D01*
X38838Y92040D02*
X48838Y92040D01*
X48838Y87040D01*
X38838Y87040D01*
X38838Y92040D01*
D12*
X109660Y46814D02*
X109660Y39164D01*
X109660Y8564D02*
X109660Y4364D01*
X20260Y4364D01*
X20260Y8564D01*
X20260Y39164D02*
X20260Y46814D01*
D16*
X32960Y79864D02*
X32962Y79927D01*
X32968Y79989D01*
X32978Y80051D01*
X32991Y80113D01*
X33009Y80173D01*
X33030Y80232D01*
X33055Y80290D01*
X33084Y80346D01*
X33116Y80400D01*
X33151Y80452D01*
X33189Y80501D01*
X33231Y80549D01*
X33275Y80593D01*
X33323Y80635D01*
X33372Y80673D01*
X33424Y80708D01*
X33478Y80740D01*
X33534Y80769D01*
X33592Y80794D01*
X33651Y80815D01*
X33711Y80833D01*
X33773Y80846D01*
X33835Y80856D01*
X33897Y80862D01*
X33960Y80864D01*
X34023Y80862D01*
X34085Y80856D01*
X34147Y80846D01*
X34209Y80833D01*
X34269Y80815D01*
X34328Y80794D01*
X34386Y80769D01*
X34442Y80740D01*
X34496Y80708D01*
X34548Y80673D01*
X34597Y80635D01*
X34645Y80593D01*
X34689Y80549D01*
X34731Y80501D01*
X34769Y80452D01*
X34804Y80400D01*
X34836Y80346D01*
X34865Y80290D01*
X34890Y80232D01*
X34911Y80173D01*
X34929Y80113D01*
X34942Y80051D01*
X34952Y79989D01*
X34958Y79927D01*
X34960Y79864D01*
X34958Y79801D01*
X34952Y79739D01*
X34942Y79677D01*
X34929Y79615D01*
X34911Y79555D01*
X34890Y79496D01*
X34865Y79438D01*
X34836Y79382D01*
X34804Y79328D01*
X34769Y79276D01*
X34731Y79227D01*
X34689Y79179D01*
X34645Y79135D01*
X34597Y79093D01*
X34548Y79055D01*
X34496Y79020D01*
X34442Y78988D01*
X34386Y78959D01*
X34328Y78934D01*
X34269Y78913D01*
X34209Y78895D01*
X34147Y78882D01*
X34085Y78872D01*
X34023Y78866D01*
X33960Y78864D01*
X33897Y78866D01*
X33835Y78872D01*
X33773Y78882D01*
X33711Y78895D01*
X33651Y78913D01*
X33592Y78934D01*
X33534Y78959D01*
X33478Y78988D01*
X33424Y79020D01*
X33372Y79055D01*
X33323Y79093D01*
X33275Y79135D01*
X33231Y79179D01*
X33189Y79227D01*
X33151Y79276D01*
X33116Y79328D01*
X33084Y79382D01*
X33055Y79438D01*
X33030Y79496D01*
X33009Y79555D01*
X32991Y79615D01*
X32978Y79677D01*
X32968Y79739D01*
X32962Y79801D01*
X32960Y79864D01*
D17*
X53379Y111174D02*
X53381Y111227D01*
X53387Y111279D01*
X53397Y111331D01*
X53410Y111382D01*
X53428Y111432D01*
X53449Y111481D01*
X53474Y111528D01*
X53502Y111572D01*
X53533Y111615D01*
X53568Y111655D01*
X53605Y111692D01*
X53645Y111727D01*
X53688Y111758D01*
X53733Y111786D01*
X53779Y111811D01*
X53828Y111832D01*
X53878Y111850D01*
X53929Y111863D01*
X53981Y111873D01*
X54033Y111879D01*
X54086Y111881D01*
X54139Y111879D01*
X54191Y111873D01*
X54243Y111863D01*
X54294Y111850D01*
X54344Y111832D01*
X54393Y111811D01*
X54440Y111786D01*
X54484Y111758D01*
X54527Y111727D01*
X54567Y111692D01*
X54604Y111655D01*
X54639Y111615D01*
X54670Y111572D01*
X54698Y111527D01*
X54723Y111481D01*
X54744Y111432D01*
X54762Y111382D01*
X54775Y111331D01*
X54785Y111279D01*
X54791Y111227D01*
X54793Y111174D01*
X54791Y111121D01*
X54785Y111069D01*
X54775Y111017D01*
X54762Y110966D01*
X54744Y110916D01*
X54723Y110867D01*
X54698Y110820D01*
X54670Y110776D01*
X54639Y110733D01*
X54604Y110693D01*
X54567Y110656D01*
X54527Y110621D01*
X54484Y110590D01*
X54439Y110562D01*
X54393Y110537D01*
X54344Y110516D01*
X54294Y110498D01*
X54243Y110485D01*
X54191Y110475D01*
X54139Y110469D01*
X54086Y110467D01*
X54033Y110469D01*
X53981Y110475D01*
X53929Y110485D01*
X53878Y110498D01*
X53828Y110516D01*
X53779Y110537D01*
X53732Y110562D01*
X53688Y110590D01*
X53645Y110621D01*
X53605Y110656D01*
X53568Y110693D01*
X53533Y110733D01*
X53502Y110776D01*
X53474Y110821D01*
X53449Y110867D01*
X53428Y110916D01*
X53410Y110966D01*
X53397Y111017D01*
X53387Y111069D01*
X53381Y111121D01*
X53379Y111174D01*
X59386Y99474D02*
X29386Y99474D01*
X29386Y118474D01*
X59386Y118474D02*
X59386Y99474D01*
X59386Y118474D02*
X29386Y118474D01*
D12*
X191664Y28284D02*
X191666Y28399D01*
X191672Y28513D01*
X191682Y28627D01*
X191696Y28741D01*
X191714Y28854D01*
X191735Y28967D01*
X191761Y29079D01*
X191791Y29189D01*
X191824Y29299D01*
X191861Y29407D01*
X191902Y29514D01*
X191946Y29620D01*
X191995Y29724D01*
X192046Y29826D01*
X192102Y29927D01*
X192160Y30025D01*
X192222Y30121D01*
X192288Y30216D01*
X192357Y30307D01*
X192428Y30397D01*
X192503Y30484D01*
X192581Y30568D01*
X192662Y30649D01*
X192745Y30728D01*
X192831Y30803D01*
X192920Y30876D01*
X193011Y30945D01*
X193105Y31011D01*
X193201Y31074D01*
X193298Y31134D01*
X193398Y31190D01*
X193500Y31243D01*
X193604Y31292D01*
X193709Y31337D01*
X193816Y31379D01*
X193924Y31417D01*
X194033Y31452D01*
X194144Y31482D01*
X194255Y31509D01*
X194368Y31531D01*
X194481Y31550D01*
X194594Y31565D01*
X194708Y31576D01*
X194823Y31583D01*
X194937Y31586D01*
X195052Y31585D01*
X195166Y31580D01*
X195281Y31571D01*
X195395Y31558D01*
X195508Y31541D01*
X195621Y31520D01*
X195733Y31496D01*
X195844Y31467D01*
X195954Y31435D01*
X196062Y31399D01*
X196170Y31359D01*
X196276Y31315D01*
X196380Y31268D01*
X196483Y31217D01*
X196584Y31163D01*
X196683Y31105D01*
X196780Y31043D01*
X196874Y30979D01*
X196967Y30911D01*
X197057Y30840D01*
X197144Y30766D01*
X197229Y30689D01*
X197311Y30609D01*
X197390Y30526D01*
X197467Y30440D01*
X197540Y30352D01*
X197610Y30262D01*
X197677Y30169D01*
X197741Y30074D01*
X197801Y29976D01*
X197858Y29877D01*
X197912Y29775D01*
X197962Y29672D01*
X198008Y29567D01*
X198051Y29461D01*
X198090Y29353D01*
X198125Y29244D01*
X198157Y29134D01*
X198184Y29023D01*
X198208Y28911D01*
X198228Y28798D01*
X198244Y28684D01*
X198256Y28570D01*
X198264Y28456D01*
X198268Y28341D01*
X198268Y28227D01*
X198264Y28112D01*
X198256Y27998D01*
X198244Y27884D01*
X198228Y27770D01*
X198208Y27657D01*
X198184Y27545D01*
X198157Y27434D01*
X198125Y27324D01*
X198090Y27215D01*
X198051Y27107D01*
X198008Y27001D01*
X197962Y26896D01*
X197912Y26793D01*
X197858Y26691D01*
X197801Y26592D01*
X197741Y26494D01*
X197677Y26399D01*
X197610Y26306D01*
X197540Y26216D01*
X197467Y26128D01*
X197390Y26042D01*
X197311Y25959D01*
X197229Y25879D01*
X197144Y25802D01*
X197057Y25728D01*
X196967Y25657D01*
X196874Y25589D01*
X196780Y25525D01*
X196683Y25463D01*
X196584Y25405D01*
X196483Y25351D01*
X196380Y25300D01*
X196276Y25253D01*
X196170Y25209D01*
X196062Y25169D01*
X195954Y25133D01*
X195844Y25101D01*
X195733Y25072D01*
X195621Y25048D01*
X195508Y25027D01*
X195395Y25010D01*
X195281Y24997D01*
X195166Y24988D01*
X195052Y24983D01*
X194937Y24982D01*
X194823Y24985D01*
X194708Y24992D01*
X194594Y25003D01*
X194481Y25018D01*
X194368Y25037D01*
X194255Y25059D01*
X194144Y25086D01*
X194033Y25116D01*
X193924Y25151D01*
X193816Y25189D01*
X193709Y25231D01*
X193604Y25276D01*
X193500Y25325D01*
X193398Y25378D01*
X193298Y25434D01*
X193201Y25494D01*
X193105Y25557D01*
X193011Y25623D01*
X192920Y25692D01*
X192831Y25765D01*
X192745Y25840D01*
X192662Y25919D01*
X192581Y26000D01*
X192503Y26084D01*
X192428Y26171D01*
X192357Y26261D01*
X192288Y26352D01*
X192222Y26447D01*
X192160Y26543D01*
X192102Y26641D01*
X192046Y26742D01*
X191995Y26844D01*
X191946Y26948D01*
X191902Y27054D01*
X191861Y27161D01*
X191824Y27269D01*
X191791Y27379D01*
X191761Y27489D01*
X191735Y27601D01*
X191714Y27714D01*
X191696Y27827D01*
X191682Y27941D01*
X191672Y28055D01*
X191666Y28169D01*
X191664Y28284D01*
D17*
X53633Y139368D02*
X53635Y139421D01*
X53641Y139473D01*
X53651Y139525D01*
X53664Y139576D01*
X53682Y139626D01*
X53703Y139675D01*
X53728Y139722D01*
X53756Y139766D01*
X53787Y139809D01*
X53822Y139849D01*
X53859Y139886D01*
X53899Y139921D01*
X53942Y139952D01*
X53987Y139980D01*
X54033Y140005D01*
X54082Y140026D01*
X54132Y140044D01*
X54183Y140057D01*
X54235Y140067D01*
X54287Y140073D01*
X54340Y140075D01*
X54393Y140073D01*
X54445Y140067D01*
X54497Y140057D01*
X54548Y140044D01*
X54598Y140026D01*
X54647Y140005D01*
X54694Y139980D01*
X54738Y139952D01*
X54781Y139921D01*
X54821Y139886D01*
X54858Y139849D01*
X54893Y139809D01*
X54924Y139766D01*
X54952Y139721D01*
X54977Y139675D01*
X54998Y139626D01*
X55016Y139576D01*
X55029Y139525D01*
X55039Y139473D01*
X55045Y139421D01*
X55047Y139368D01*
X55045Y139315D01*
X55039Y139263D01*
X55029Y139211D01*
X55016Y139160D01*
X54998Y139110D01*
X54977Y139061D01*
X54952Y139014D01*
X54924Y138970D01*
X54893Y138927D01*
X54858Y138887D01*
X54821Y138850D01*
X54781Y138815D01*
X54738Y138784D01*
X54693Y138756D01*
X54647Y138731D01*
X54598Y138710D01*
X54548Y138692D01*
X54497Y138679D01*
X54445Y138669D01*
X54393Y138663D01*
X54340Y138661D01*
X54287Y138663D01*
X54235Y138669D01*
X54183Y138679D01*
X54132Y138692D01*
X54082Y138710D01*
X54033Y138731D01*
X53986Y138756D01*
X53942Y138784D01*
X53899Y138815D01*
X53859Y138850D01*
X53822Y138887D01*
X53787Y138927D01*
X53756Y138970D01*
X53728Y139015D01*
X53703Y139061D01*
X53682Y139110D01*
X53664Y139160D01*
X53651Y139211D01*
X53641Y139263D01*
X53635Y139315D01*
X53633Y139368D01*
X59640Y127668D02*
X29640Y127668D01*
X29640Y146668D01*
X59640Y146668D02*
X59640Y127668D01*
X59640Y146668D02*
X29640Y146668D01*
X53633Y167308D02*
X53635Y167361D01*
X53641Y167413D01*
X53651Y167465D01*
X53664Y167516D01*
X53682Y167566D01*
X53703Y167615D01*
X53728Y167662D01*
X53756Y167706D01*
X53787Y167749D01*
X53822Y167789D01*
X53859Y167826D01*
X53899Y167861D01*
X53942Y167892D01*
X53987Y167920D01*
X54033Y167945D01*
X54082Y167966D01*
X54132Y167984D01*
X54183Y167997D01*
X54235Y168007D01*
X54287Y168013D01*
X54340Y168015D01*
X54393Y168013D01*
X54445Y168007D01*
X54497Y167997D01*
X54548Y167984D01*
X54598Y167966D01*
X54647Y167945D01*
X54694Y167920D01*
X54738Y167892D01*
X54781Y167861D01*
X54821Y167826D01*
X54858Y167789D01*
X54893Y167749D01*
X54924Y167706D01*
X54952Y167661D01*
X54977Y167615D01*
X54998Y167566D01*
X55016Y167516D01*
X55029Y167465D01*
X55039Y167413D01*
X55045Y167361D01*
X55047Y167308D01*
X55045Y167255D01*
X55039Y167203D01*
X55029Y167151D01*
X55016Y167100D01*
X54998Y167050D01*
X54977Y167001D01*
X54952Y166954D01*
X54924Y166910D01*
X54893Y166867D01*
X54858Y166827D01*
X54821Y166790D01*
X54781Y166755D01*
X54738Y166724D01*
X54693Y166696D01*
X54647Y166671D01*
X54598Y166650D01*
X54548Y166632D01*
X54497Y166619D01*
X54445Y166609D01*
X54393Y166603D01*
X54340Y166601D01*
X54287Y166603D01*
X54235Y166609D01*
X54183Y166619D01*
X54132Y166632D01*
X54082Y166650D01*
X54033Y166671D01*
X53986Y166696D01*
X53942Y166724D01*
X53899Y166755D01*
X53859Y166790D01*
X53822Y166827D01*
X53787Y166867D01*
X53756Y166910D01*
X53728Y166955D01*
X53703Y167001D01*
X53682Y167050D01*
X53664Y167100D01*
X53651Y167151D01*
X53641Y167203D01*
X53635Y167255D01*
X53633Y167308D01*
X59640Y155608D02*
X29640Y155608D01*
X29640Y174608D01*
X59640Y174608D02*
X59640Y155608D01*
X59640Y174608D02*
X29640Y174608D01*
D16*
X121393Y313941D02*
X121395Y314004D01*
X121401Y314066D01*
X121411Y314128D01*
X121424Y314190D01*
X121442Y314250D01*
X121463Y314309D01*
X121488Y314367D01*
X121517Y314423D01*
X121549Y314477D01*
X121584Y314529D01*
X121622Y314578D01*
X121664Y314626D01*
X121708Y314670D01*
X121756Y314712D01*
X121805Y314750D01*
X121857Y314785D01*
X121911Y314817D01*
X121967Y314846D01*
X122025Y314871D01*
X122084Y314892D01*
X122144Y314910D01*
X122206Y314923D01*
X122268Y314933D01*
X122330Y314939D01*
X122393Y314941D01*
X122456Y314939D01*
X122518Y314933D01*
X122580Y314923D01*
X122642Y314910D01*
X122702Y314892D01*
X122761Y314871D01*
X122819Y314846D01*
X122875Y314817D01*
X122929Y314785D01*
X122981Y314750D01*
X123030Y314712D01*
X123078Y314670D01*
X123122Y314626D01*
X123164Y314578D01*
X123202Y314529D01*
X123237Y314477D01*
X123269Y314423D01*
X123298Y314367D01*
X123323Y314309D01*
X123344Y314250D01*
X123362Y314190D01*
X123375Y314128D01*
X123385Y314066D01*
X123391Y314004D01*
X123393Y313941D01*
X123391Y313878D01*
X123385Y313816D01*
X123375Y313754D01*
X123362Y313692D01*
X123344Y313632D01*
X123323Y313573D01*
X123298Y313515D01*
X123269Y313459D01*
X123237Y313405D01*
X123202Y313353D01*
X123164Y313304D01*
X123122Y313256D01*
X123078Y313212D01*
X123030Y313170D01*
X122981Y313132D01*
X122929Y313097D01*
X122875Y313065D01*
X122819Y313036D01*
X122761Y313011D01*
X122702Y312990D01*
X122642Y312972D01*
X122580Y312959D01*
X122518Y312949D01*
X122456Y312943D01*
X122393Y312941D01*
X122330Y312943D01*
X122268Y312949D01*
X122206Y312959D01*
X122144Y312972D01*
X122084Y312990D01*
X122025Y313011D01*
X121967Y313036D01*
X121911Y313065D01*
X121857Y313097D01*
X121805Y313132D01*
X121756Y313170D01*
X121708Y313212D01*
X121664Y313256D01*
X121622Y313304D01*
X121584Y313353D01*
X121549Y313405D01*
X121517Y313459D01*
X121488Y313515D01*
X121463Y313573D01*
X121442Y313632D01*
X121424Y313692D01*
X121411Y313754D01*
X121401Y313816D01*
X121395Y313878D01*
X121393Y313941D01*
D12*
X131493Y318741D02*
X151493Y318741D01*
X151493Y296141D02*
X131493Y296141D01*
X39400Y204950D02*
X5050Y204950D01*
X5050Y337050D01*
X39400Y337050D01*
X77600Y204950D02*
X94200Y204950D01*
X125750Y235300D01*
X125750Y306700D01*
X94200Y337050D01*
X77600Y337050D01*
X243600Y337050D02*
X277950Y337050D01*
X277950Y204950D01*
X243600Y204950D01*
X205400Y337050D02*
X188800Y337050D01*
X157250Y306700D01*
X157250Y235300D01*
X188800Y204950D01*
X205400Y204950D01*
M02*
