G04 EAGLE Gerber RS-274X export*
G75*
%MOMM*%
%FSLAX34Y34*%
%LPD*%
%INSolderpaste Top*%
%IPPOS*%
%AMOC8*
5,1,8,0,0,1.08239X$1,22.5*%
G01*
%ADD10R,0.600000X0.500000*%
%ADD11R,0.600000X0.900000*%
%ADD12R,0.500000X0.600000*%
%ADD13R,1.000000X1.800000*%
%ADD14R,0.700000X0.250000*%
%ADD15R,0.250000X0.700000*%
%ADD16R,1.300000X1.300000*%
%ADD17R,1.016000X0.711200*%
%ADD18R,0.609600X0.685800*%
%ADD19R,1.580000X1.580000*%
%ADD20C,0.067500*%
%ADD21R,0.800000X0.600000*%
%ADD22R,0.450000X0.950000*%
%ADD23R,4.350000X3.450000*%
%ADD24C,0.300000*%
%ADD25R,0.520000X1.000000*%
%ADD26R,0.270000X1.000000*%
%ADD27R,1.000000X2.000000*%
%ADD28R,0.450000X0.600000*%
%ADD29R,0.890000X0.940000*%
%ADD30R,1.080000X1.050000*%
%ADD31R,0.632000X1.012000*%
%ADD32R,0.660000X0.320000*%
%ADD33R,2.000000X0.650000*%
%ADD34R,3.960000X3.960000*%
%ADD35R,3.180000X3.180000*%


D10*
X217544Y98106D03*
X217544Y108106D03*
D11*
X97994Y173301D03*
X82994Y173301D03*
D10*
X207400Y106995D03*
X207400Y96995D03*
D12*
X153137Y212039D03*
X143137Y212039D03*
X222792Y153458D03*
X232792Y153458D03*
D11*
X97978Y187764D03*
X82978Y187764D03*
D10*
X197240Y106995D03*
X197240Y96995D03*
D12*
X125610Y177339D03*
X115610Y177339D03*
D11*
X98164Y158987D03*
X83164Y158987D03*
X98079Y144759D03*
X83079Y144759D03*
D12*
X241035Y142173D03*
X251035Y142173D03*
X271199Y142133D03*
X261199Y142133D03*
D13*
X268486Y157437D03*
X243486Y157437D03*
D14*
X199440Y136810D03*
X199440Y143310D03*
X199440Y149810D03*
X199440Y156310D03*
X199440Y162810D03*
X199440Y169310D03*
X199440Y175810D03*
X199440Y182310D03*
D15*
X192190Y189560D03*
X185690Y189560D03*
X179190Y189560D03*
X172690Y189560D03*
X166190Y189560D03*
X159690Y189560D03*
X153190Y189560D03*
X146690Y189560D03*
D14*
X139440Y182310D03*
X139440Y175810D03*
X139440Y169310D03*
X139440Y162810D03*
X139440Y156310D03*
X139440Y149810D03*
X139440Y143310D03*
X139440Y136810D03*
D15*
X146690Y129560D03*
X153190Y129560D03*
X159690Y129560D03*
X166190Y129560D03*
X172690Y129560D03*
X179190Y129560D03*
X185690Y129560D03*
X192190Y129560D03*
D16*
X178440Y150560D03*
X178440Y168560D03*
X160440Y168560D03*
X160440Y150560D03*
D17*
X97973Y100467D03*
D18*
X80955Y100467D03*
X80955Y80147D03*
X99751Y80147D03*
D12*
X203472Y40670D03*
X193472Y40670D03*
D19*
X163070Y62405D03*
D20*
X174557Y77792D02*
X174557Y85718D01*
X176583Y85718D01*
X176583Y77792D01*
X174557Y77792D01*
X174557Y78433D02*
X176583Y78433D01*
X176583Y79074D02*
X174557Y79074D01*
X174557Y79715D02*
X176583Y79715D01*
X176583Y80356D02*
X174557Y80356D01*
X174557Y80997D02*
X176583Y80997D01*
X176583Y81638D02*
X174557Y81638D01*
X174557Y82279D02*
X176583Y82279D01*
X176583Y82920D02*
X174557Y82920D01*
X174557Y83561D02*
X176583Y83561D01*
X176583Y84202D02*
X174557Y84202D01*
X174557Y84843D02*
X176583Y84843D01*
X176583Y85484D02*
X174557Y85484D01*
X169557Y85718D02*
X169557Y77792D01*
X169557Y85718D02*
X171583Y85718D01*
X171583Y77792D01*
X169557Y77792D01*
X169557Y78433D02*
X171583Y78433D01*
X171583Y79074D02*
X169557Y79074D01*
X169557Y79715D02*
X171583Y79715D01*
X171583Y80356D02*
X169557Y80356D01*
X169557Y80997D02*
X171583Y80997D01*
X171583Y81638D02*
X169557Y81638D01*
X169557Y82279D02*
X171583Y82279D01*
X171583Y82920D02*
X169557Y82920D01*
X169557Y83561D02*
X171583Y83561D01*
X171583Y84202D02*
X169557Y84202D01*
X169557Y84843D02*
X171583Y84843D01*
X171583Y85484D02*
X169557Y85484D01*
X164557Y85718D02*
X164557Y77792D01*
X164557Y85718D02*
X166583Y85718D01*
X166583Y77792D01*
X164557Y77792D01*
X164557Y78433D02*
X166583Y78433D01*
X166583Y79074D02*
X164557Y79074D01*
X164557Y79715D02*
X166583Y79715D01*
X166583Y80356D02*
X164557Y80356D01*
X164557Y80997D02*
X166583Y80997D01*
X166583Y81638D02*
X164557Y81638D01*
X164557Y82279D02*
X166583Y82279D01*
X166583Y82920D02*
X164557Y82920D01*
X164557Y83561D02*
X166583Y83561D01*
X166583Y84202D02*
X164557Y84202D01*
X164557Y84843D02*
X166583Y84843D01*
X166583Y85484D02*
X164557Y85484D01*
X159557Y85718D02*
X159557Y77792D01*
X159557Y85718D02*
X161583Y85718D01*
X161583Y77792D01*
X159557Y77792D01*
X159557Y78433D02*
X161583Y78433D01*
X161583Y79074D02*
X159557Y79074D01*
X159557Y79715D02*
X161583Y79715D01*
X161583Y80356D02*
X159557Y80356D01*
X159557Y80997D02*
X161583Y80997D01*
X161583Y81638D02*
X159557Y81638D01*
X159557Y82279D02*
X161583Y82279D01*
X161583Y82920D02*
X159557Y82920D01*
X159557Y83561D02*
X161583Y83561D01*
X161583Y84202D02*
X159557Y84202D01*
X159557Y84843D02*
X161583Y84843D01*
X161583Y85484D02*
X159557Y85484D01*
X154557Y85718D02*
X154557Y77792D01*
X154557Y85718D02*
X156583Y85718D01*
X156583Y77792D01*
X154557Y77792D01*
X154557Y78433D02*
X156583Y78433D01*
X156583Y79074D02*
X154557Y79074D01*
X154557Y79715D02*
X156583Y79715D01*
X156583Y80356D02*
X154557Y80356D01*
X154557Y80997D02*
X156583Y80997D01*
X156583Y81638D02*
X154557Y81638D01*
X154557Y82279D02*
X156583Y82279D01*
X156583Y82920D02*
X154557Y82920D01*
X154557Y83561D02*
X156583Y83561D01*
X156583Y84202D02*
X154557Y84202D01*
X154557Y84843D02*
X156583Y84843D01*
X156583Y85484D02*
X154557Y85484D01*
X149557Y85718D02*
X149557Y77792D01*
X149557Y85718D02*
X151583Y85718D01*
X151583Y77792D01*
X149557Y77792D01*
X149557Y78433D02*
X151583Y78433D01*
X151583Y79074D02*
X149557Y79074D01*
X149557Y79715D02*
X151583Y79715D01*
X151583Y80356D02*
X149557Y80356D01*
X149557Y80997D02*
X151583Y80997D01*
X151583Y81638D02*
X149557Y81638D01*
X149557Y82279D02*
X151583Y82279D01*
X151583Y82920D02*
X149557Y82920D01*
X149557Y83561D02*
X151583Y83561D01*
X151583Y84202D02*
X149557Y84202D01*
X149557Y84843D02*
X151583Y84843D01*
X151583Y85484D02*
X149557Y85484D01*
X147683Y73892D02*
X139757Y73892D01*
X139757Y75918D01*
X147683Y75918D01*
X147683Y73892D01*
X147683Y74533D02*
X139757Y74533D01*
X139757Y75174D02*
X147683Y75174D01*
X147683Y75815D02*
X139757Y75815D01*
X139757Y68892D02*
X147683Y68892D01*
X139757Y68892D02*
X139757Y70918D01*
X147683Y70918D01*
X147683Y68892D01*
X147683Y69533D02*
X139757Y69533D01*
X139757Y70174D02*
X147683Y70174D01*
X147683Y70815D02*
X139757Y70815D01*
X139757Y63892D02*
X147683Y63892D01*
X139757Y63892D02*
X139757Y65918D01*
X147683Y65918D01*
X147683Y63892D01*
X147683Y64533D02*
X139757Y64533D01*
X139757Y65174D02*
X147683Y65174D01*
X147683Y65815D02*
X139757Y65815D01*
X139757Y58892D02*
X147683Y58892D01*
X139757Y58892D02*
X139757Y60918D01*
X147683Y60918D01*
X147683Y58892D01*
X147683Y59533D02*
X139757Y59533D01*
X139757Y60174D02*
X147683Y60174D01*
X147683Y60815D02*
X139757Y60815D01*
X139757Y53892D02*
X147683Y53892D01*
X139757Y53892D02*
X139757Y55918D01*
X147683Y55918D01*
X147683Y53892D01*
X147683Y54533D02*
X139757Y54533D01*
X139757Y55174D02*
X147683Y55174D01*
X147683Y55815D02*
X139757Y55815D01*
X139757Y48892D02*
X147683Y48892D01*
X139757Y48892D02*
X139757Y50918D01*
X147683Y50918D01*
X147683Y48892D01*
X147683Y49533D02*
X139757Y49533D01*
X139757Y50174D02*
X147683Y50174D01*
X147683Y50815D02*
X139757Y50815D01*
X149557Y47018D02*
X149557Y39092D01*
X149557Y47018D02*
X151583Y47018D01*
X151583Y39092D01*
X149557Y39092D01*
X149557Y39733D02*
X151583Y39733D01*
X151583Y40374D02*
X149557Y40374D01*
X149557Y41015D02*
X151583Y41015D01*
X151583Y41656D02*
X149557Y41656D01*
X149557Y42297D02*
X151583Y42297D01*
X151583Y42938D02*
X149557Y42938D01*
X149557Y43579D02*
X151583Y43579D01*
X151583Y44220D02*
X149557Y44220D01*
X149557Y44861D02*
X151583Y44861D01*
X151583Y45502D02*
X149557Y45502D01*
X149557Y46143D02*
X151583Y46143D01*
X151583Y46784D02*
X149557Y46784D01*
X154557Y47018D02*
X154557Y39092D01*
X154557Y47018D02*
X156583Y47018D01*
X156583Y39092D01*
X154557Y39092D01*
X154557Y39733D02*
X156583Y39733D01*
X156583Y40374D02*
X154557Y40374D01*
X154557Y41015D02*
X156583Y41015D01*
X156583Y41656D02*
X154557Y41656D01*
X154557Y42297D02*
X156583Y42297D01*
X156583Y42938D02*
X154557Y42938D01*
X154557Y43579D02*
X156583Y43579D01*
X156583Y44220D02*
X154557Y44220D01*
X154557Y44861D02*
X156583Y44861D01*
X156583Y45502D02*
X154557Y45502D01*
X154557Y46143D02*
X156583Y46143D01*
X156583Y46784D02*
X154557Y46784D01*
X159557Y47018D02*
X159557Y39092D01*
X159557Y47018D02*
X161583Y47018D01*
X161583Y39092D01*
X159557Y39092D01*
X159557Y39733D02*
X161583Y39733D01*
X161583Y40374D02*
X159557Y40374D01*
X159557Y41015D02*
X161583Y41015D01*
X161583Y41656D02*
X159557Y41656D01*
X159557Y42297D02*
X161583Y42297D01*
X161583Y42938D02*
X159557Y42938D01*
X159557Y43579D02*
X161583Y43579D01*
X161583Y44220D02*
X159557Y44220D01*
X159557Y44861D02*
X161583Y44861D01*
X161583Y45502D02*
X159557Y45502D01*
X159557Y46143D02*
X161583Y46143D01*
X161583Y46784D02*
X159557Y46784D01*
X164557Y47018D02*
X164557Y39092D01*
X164557Y47018D02*
X166583Y47018D01*
X166583Y39092D01*
X164557Y39092D01*
X164557Y39733D02*
X166583Y39733D01*
X166583Y40374D02*
X164557Y40374D01*
X164557Y41015D02*
X166583Y41015D01*
X166583Y41656D02*
X164557Y41656D01*
X164557Y42297D02*
X166583Y42297D01*
X166583Y42938D02*
X164557Y42938D01*
X164557Y43579D02*
X166583Y43579D01*
X166583Y44220D02*
X164557Y44220D01*
X164557Y44861D02*
X166583Y44861D01*
X166583Y45502D02*
X164557Y45502D01*
X164557Y46143D02*
X166583Y46143D01*
X166583Y46784D02*
X164557Y46784D01*
X169557Y47018D02*
X169557Y39092D01*
X169557Y47018D02*
X171583Y47018D01*
X171583Y39092D01*
X169557Y39092D01*
X169557Y39733D02*
X171583Y39733D01*
X171583Y40374D02*
X169557Y40374D01*
X169557Y41015D02*
X171583Y41015D01*
X171583Y41656D02*
X169557Y41656D01*
X169557Y42297D02*
X171583Y42297D01*
X171583Y42938D02*
X169557Y42938D01*
X169557Y43579D02*
X171583Y43579D01*
X171583Y44220D02*
X169557Y44220D01*
X169557Y44861D02*
X171583Y44861D01*
X171583Y45502D02*
X169557Y45502D01*
X169557Y46143D02*
X171583Y46143D01*
X171583Y46784D02*
X169557Y46784D01*
X174557Y47018D02*
X174557Y39092D01*
X174557Y47018D02*
X176583Y47018D01*
X176583Y39092D01*
X174557Y39092D01*
X174557Y39733D02*
X176583Y39733D01*
X176583Y40374D02*
X174557Y40374D01*
X174557Y41015D02*
X176583Y41015D01*
X176583Y41656D02*
X174557Y41656D01*
X174557Y42297D02*
X176583Y42297D01*
X176583Y42938D02*
X174557Y42938D01*
X174557Y43579D02*
X176583Y43579D01*
X176583Y44220D02*
X174557Y44220D01*
X174557Y44861D02*
X176583Y44861D01*
X176583Y45502D02*
X174557Y45502D01*
X174557Y46143D02*
X176583Y46143D01*
X176583Y46784D02*
X174557Y46784D01*
X178457Y48892D02*
X186383Y48892D01*
X178457Y48892D02*
X178457Y50918D01*
X186383Y50918D01*
X186383Y48892D01*
X186383Y49533D02*
X178457Y49533D01*
X178457Y50174D02*
X186383Y50174D01*
X186383Y50815D02*
X178457Y50815D01*
X178457Y53892D02*
X186383Y53892D01*
X178457Y53892D02*
X178457Y55918D01*
X186383Y55918D01*
X186383Y53892D01*
X186383Y54533D02*
X178457Y54533D01*
X178457Y55174D02*
X186383Y55174D01*
X186383Y55815D02*
X178457Y55815D01*
X178457Y58892D02*
X186383Y58892D01*
X178457Y58892D02*
X178457Y60918D01*
X186383Y60918D01*
X186383Y58892D01*
X186383Y59533D02*
X178457Y59533D01*
X178457Y60174D02*
X186383Y60174D01*
X186383Y60815D02*
X178457Y60815D01*
X178457Y63892D02*
X186383Y63892D01*
X178457Y63892D02*
X178457Y65918D01*
X186383Y65918D01*
X186383Y63892D01*
X186383Y64533D02*
X178457Y64533D01*
X178457Y65174D02*
X186383Y65174D01*
X186383Y65815D02*
X178457Y65815D01*
X178457Y68892D02*
X186383Y68892D01*
X178457Y68892D02*
X178457Y70918D01*
X186383Y70918D01*
X186383Y68892D01*
X186383Y69533D02*
X178457Y69533D01*
X178457Y70174D02*
X186383Y70174D01*
X186383Y70815D02*
X178457Y70815D01*
X178457Y73892D02*
X186383Y73892D01*
X178457Y73892D02*
X178457Y75918D01*
X186383Y75918D01*
X186383Y73892D01*
X186383Y74533D02*
X178457Y74533D01*
X178457Y75174D02*
X186383Y75174D01*
X186383Y75815D02*
X178457Y75815D01*
D10*
X130764Y28504D03*
X130764Y18504D03*
X160274Y22364D03*
X160274Y12364D03*
D12*
X152243Y19482D03*
X142243Y19482D03*
D10*
X130685Y47466D03*
X130685Y37466D03*
D12*
X204900Y75740D03*
X194900Y75740D03*
X204900Y65580D03*
X194900Y65580D03*
X204900Y86980D03*
X194900Y86980D03*
D21*
X131799Y78662D03*
X131799Y90662D03*
X117799Y90662D03*
X117799Y78662D03*
D10*
X237650Y110260D03*
X237650Y100260D03*
X252890Y110260D03*
X252890Y100260D03*
X268130Y110260D03*
X268130Y100260D03*
X15176Y105244D03*
X15176Y115244D03*
X259039Y186652D03*
X259039Y196652D03*
D22*
X224030Y8640D03*
X236730Y8640D03*
X249430Y8640D03*
X262130Y8640D03*
X262130Y86640D03*
X249430Y86640D03*
X236730Y86640D03*
X224030Y86640D03*
D23*
X243080Y47640D03*
D24*
X140351Y358900D02*
X133351Y358900D01*
X140351Y358900D02*
X140351Y351900D01*
X133351Y351900D01*
X133351Y358900D01*
X133351Y354750D02*
X140351Y354750D01*
X140351Y357600D02*
X133351Y357600D01*
X133351Y341360D02*
X140351Y341360D01*
X140351Y334360D01*
X133351Y334360D01*
X133351Y341360D01*
X133351Y337210D02*
X140351Y337210D01*
X140351Y340060D02*
X133351Y340060D01*
X146051Y358900D02*
X153051Y358900D01*
X153051Y351900D01*
X146051Y351900D01*
X146051Y358900D01*
X146051Y354750D02*
X153051Y354750D01*
X153051Y357600D02*
X146051Y357600D01*
X146051Y341360D02*
X153051Y341360D01*
X153051Y334360D01*
X146051Y334360D01*
X146051Y341360D01*
X146051Y337210D02*
X153051Y337210D01*
X153051Y340060D02*
X146051Y340060D01*
D12*
X126464Y148118D03*
X116464Y148118D03*
X126490Y136946D03*
X116490Y136946D03*
X76470Y110244D03*
X86470Y110244D03*
X86216Y125738D03*
X76216Y125738D03*
D10*
X15176Y188650D03*
X15176Y178650D03*
X15176Y152074D03*
X15176Y142074D03*
X67246Y159600D03*
X67246Y169600D03*
X124151Y344170D03*
X124151Y354170D03*
X162251Y344170D03*
X162251Y354170D03*
D12*
X68888Y89637D03*
X58888Y89637D03*
X143256Y240155D03*
X153256Y240155D03*
D10*
X270622Y196667D03*
X270622Y186667D03*
D12*
X153397Y225000D03*
X143397Y225000D03*
D10*
X246490Y186795D03*
X246490Y196795D03*
D12*
X28479Y89530D03*
X18479Y89530D03*
X38838Y89540D03*
X48838Y89540D03*
D25*
X33960Y65864D03*
X95960Y65864D03*
X41460Y65864D03*
X88460Y65864D03*
D26*
X47460Y65864D03*
X82460Y65864D03*
X52460Y65864D03*
X57460Y65864D03*
X62460Y65864D03*
X67460Y65864D03*
X72460Y65864D03*
X77460Y65864D03*
D27*
X50960Y23864D03*
X78960Y23864D03*
D28*
X54136Y116974D03*
X47636Y116974D03*
X41136Y116974D03*
X34636Y116974D03*
X34636Y100974D03*
X41136Y100974D03*
X47636Y100974D03*
X54136Y100974D03*
D29*
X201380Y30288D03*
X176580Y30288D03*
X176580Y12588D03*
X201380Y12588D03*
D28*
X54390Y145168D03*
X47890Y145168D03*
X41390Y145168D03*
X34890Y145168D03*
X34890Y129168D03*
X41390Y129168D03*
X47890Y129168D03*
X54390Y129168D03*
X54390Y173108D03*
X47890Y173108D03*
X41390Y173108D03*
X34890Y173108D03*
X34890Y157108D03*
X41390Y157108D03*
X47890Y157108D03*
X54390Y157108D03*
D30*
X150278Y279830D03*
X150278Y262330D03*
X132314Y280037D03*
X132314Y262537D03*
D31*
X141493Y307441D03*
D32*
X131243Y313941D03*
X131243Y307441D03*
X131243Y300941D03*
X151743Y300941D03*
X151743Y307441D03*
X151743Y313941D03*
D33*
X114237Y200205D03*
X114237Y213705D03*
D34*
X58500Y271000D03*
D35*
X58500Y198000D03*
X58500Y344000D03*
D34*
X224500Y271000D03*
D35*
X224500Y344000D03*
X224500Y198000D03*
M02*
