G04 EAGLE Gerber RS-274X export*
G75*
%MOMM*%
%FSLAX34Y34*%
%LPD*%
%INSoldermask Top*%
%IPPOS*%
%AMOC8*
5,1,8,0,0,1.08239X$1,22.5*%
G01*
%ADD10R,0.803200X0.703200*%
%ADD11R,0.803200X1.103200*%
%ADD12R,0.703200X0.803200*%
%ADD13R,1.203200X2.003200*%
%ADD14R,0.920000X0.470000*%
%ADD15R,0.470000X0.920000*%
%ADD16R,4.520000X4.520000*%
%ADD17R,1.219200X0.914400*%
%ADD18R,0.812800X0.889000*%
%ADD19C,0.269722*%
%ADD20R,2.703200X2.703200*%
%ADD21R,1.003200X0.803200*%
%ADD22R,0.653200X1.153200*%
%ADD23R,4.553200X3.653200*%
%ADD24C,0.505344*%
%ADD25R,0.723200X1.203200*%
%ADD26R,0.473200X1.203200*%
%ADD27C,0.803200*%
%ADD28C,0.833200*%
%ADD29R,1.203200X2.203200*%
%ADD30C,1.361200*%
%ADD31C,1.403200*%
%ADD32R,0.653200X0.803200*%
%ADD33R,1.093200X1.143200*%
%ADD34C,1.681200*%
%ADD35R,1.283200X1.253200*%
%ADD36R,0.863200X0.523200*%
%ADD37R,1.203200X1.803200*%
%ADD38R,2.203200X0.853200*%
%ADD39R,4.163200X4.163200*%
%ADD40R,3.383200X3.383200*%


D10*
X217544Y98106D03*
X217544Y108106D03*
D11*
X97994Y173301D03*
X82994Y173301D03*
D10*
X207400Y106995D03*
X207400Y96995D03*
D12*
X153137Y212039D03*
X143137Y212039D03*
X222792Y153458D03*
X232792Y153458D03*
D11*
X97978Y187764D03*
X82978Y187764D03*
D10*
X197240Y106995D03*
X197240Y96995D03*
D12*
X125610Y177339D03*
X115610Y177339D03*
D11*
X98164Y158987D03*
X83164Y158987D03*
X98079Y144759D03*
X83079Y144759D03*
D12*
X241035Y142173D03*
X251035Y142173D03*
X271199Y142133D03*
X261199Y142133D03*
D13*
X268486Y157437D03*
X243486Y157437D03*
D14*
X199440Y136810D03*
X199440Y143310D03*
X199440Y149810D03*
X199440Y156310D03*
X199440Y162810D03*
X199440Y169310D03*
X199440Y175810D03*
X199440Y182310D03*
D15*
X192190Y189560D03*
X185690Y189560D03*
X179190Y189560D03*
X172690Y189560D03*
X166190Y189560D03*
X159690Y189560D03*
X153190Y189560D03*
X146690Y189560D03*
D14*
X139440Y182310D03*
X139440Y175810D03*
X139440Y169310D03*
X139440Y162810D03*
X139440Y156310D03*
X139440Y149810D03*
X139440Y143310D03*
X139440Y136810D03*
D15*
X146690Y129560D03*
X153190Y129560D03*
X159690Y129560D03*
X166190Y129560D03*
X172690Y129560D03*
X179190Y129560D03*
X185690Y129560D03*
X192190Y129560D03*
D16*
X169440Y159560D03*
D17*
X97973Y100467D03*
D18*
X80955Y100467D03*
X80955Y80147D03*
X99751Y80147D03*
D12*
X203472Y40670D03*
X193472Y40670D03*
D19*
X174552Y77787D02*
X174552Y85723D01*
X176588Y85723D01*
X176588Y77787D01*
X174552Y77787D01*
X174552Y80349D02*
X176588Y80349D01*
X176588Y82911D02*
X174552Y82911D01*
X174552Y85473D02*
X176588Y85473D01*
X169552Y85723D02*
X169552Y77787D01*
X169552Y85723D02*
X171588Y85723D01*
X171588Y77787D01*
X169552Y77787D01*
X169552Y80349D02*
X171588Y80349D01*
X171588Y82911D02*
X169552Y82911D01*
X169552Y85473D02*
X171588Y85473D01*
X164552Y85723D02*
X164552Y77787D01*
X164552Y85723D02*
X166588Y85723D01*
X166588Y77787D01*
X164552Y77787D01*
X164552Y80349D02*
X166588Y80349D01*
X166588Y82911D02*
X164552Y82911D01*
X164552Y85473D02*
X166588Y85473D01*
X159552Y85723D02*
X159552Y77787D01*
X159552Y85723D02*
X161588Y85723D01*
X161588Y77787D01*
X159552Y77787D01*
X159552Y80349D02*
X161588Y80349D01*
X161588Y82911D02*
X159552Y82911D01*
X159552Y85473D02*
X161588Y85473D01*
X154552Y85723D02*
X154552Y77787D01*
X154552Y85723D02*
X156588Y85723D01*
X156588Y77787D01*
X154552Y77787D01*
X154552Y80349D02*
X156588Y80349D01*
X156588Y82911D02*
X154552Y82911D01*
X154552Y85473D02*
X156588Y85473D01*
X149552Y85723D02*
X149552Y77787D01*
X149552Y85723D02*
X151588Y85723D01*
X151588Y77787D01*
X149552Y77787D01*
X149552Y80349D02*
X151588Y80349D01*
X151588Y82911D02*
X149552Y82911D01*
X149552Y85473D02*
X151588Y85473D01*
X147688Y73887D02*
X139752Y73887D01*
X139752Y75923D01*
X147688Y75923D01*
X147688Y73887D01*
X147688Y68887D02*
X139752Y68887D01*
X139752Y70923D01*
X147688Y70923D01*
X147688Y68887D01*
X147688Y63887D02*
X139752Y63887D01*
X139752Y65923D01*
X147688Y65923D01*
X147688Y63887D01*
X147688Y58887D02*
X139752Y58887D01*
X139752Y60923D01*
X147688Y60923D01*
X147688Y58887D01*
X147688Y53887D02*
X139752Y53887D01*
X139752Y55923D01*
X147688Y55923D01*
X147688Y53887D01*
X147688Y48887D02*
X139752Y48887D01*
X139752Y50923D01*
X147688Y50923D01*
X147688Y48887D01*
X149552Y47023D02*
X149552Y39087D01*
X149552Y47023D02*
X151588Y47023D01*
X151588Y39087D01*
X149552Y39087D01*
X149552Y41649D02*
X151588Y41649D01*
X151588Y44211D02*
X149552Y44211D01*
X149552Y46773D02*
X151588Y46773D01*
X154552Y47023D02*
X154552Y39087D01*
X154552Y47023D02*
X156588Y47023D01*
X156588Y39087D01*
X154552Y39087D01*
X154552Y41649D02*
X156588Y41649D01*
X156588Y44211D02*
X154552Y44211D01*
X154552Y46773D02*
X156588Y46773D01*
X159552Y47023D02*
X159552Y39087D01*
X159552Y47023D02*
X161588Y47023D01*
X161588Y39087D01*
X159552Y39087D01*
X159552Y41649D02*
X161588Y41649D01*
X161588Y44211D02*
X159552Y44211D01*
X159552Y46773D02*
X161588Y46773D01*
X164552Y47023D02*
X164552Y39087D01*
X164552Y47023D02*
X166588Y47023D01*
X166588Y39087D01*
X164552Y39087D01*
X164552Y41649D02*
X166588Y41649D01*
X166588Y44211D02*
X164552Y44211D01*
X164552Y46773D02*
X166588Y46773D01*
X169552Y47023D02*
X169552Y39087D01*
X169552Y47023D02*
X171588Y47023D01*
X171588Y39087D01*
X169552Y39087D01*
X169552Y41649D02*
X171588Y41649D01*
X171588Y44211D02*
X169552Y44211D01*
X169552Y46773D02*
X171588Y46773D01*
X174552Y47023D02*
X174552Y39087D01*
X174552Y47023D02*
X176588Y47023D01*
X176588Y39087D01*
X174552Y39087D01*
X174552Y41649D02*
X176588Y41649D01*
X176588Y44211D02*
X174552Y44211D01*
X174552Y46773D02*
X176588Y46773D01*
X178452Y48887D02*
X186388Y48887D01*
X178452Y48887D02*
X178452Y50923D01*
X186388Y50923D01*
X186388Y48887D01*
X186388Y53887D02*
X178452Y53887D01*
X178452Y55923D01*
X186388Y55923D01*
X186388Y53887D01*
X186388Y58887D02*
X178452Y58887D01*
X178452Y60923D01*
X186388Y60923D01*
X186388Y58887D01*
X186388Y63887D02*
X178452Y63887D01*
X178452Y65923D01*
X186388Y65923D01*
X186388Y63887D01*
X186388Y68887D02*
X178452Y68887D01*
X178452Y70923D01*
X186388Y70923D01*
X186388Y68887D01*
X186388Y73887D02*
X178452Y73887D01*
X178452Y75923D01*
X186388Y75923D01*
X186388Y73887D01*
D20*
X163070Y62405D03*
D10*
X130764Y28504D03*
X130764Y18504D03*
X160274Y22364D03*
X160274Y12364D03*
D12*
X152243Y19482D03*
X142243Y19482D03*
D10*
X130685Y47466D03*
X130685Y37466D03*
D12*
X204900Y75740D03*
X194900Y75740D03*
X204900Y65580D03*
X194900Y65580D03*
X204900Y86980D03*
X194900Y86980D03*
D21*
X131799Y78662D03*
X131799Y90662D03*
X117799Y90662D03*
X117799Y78662D03*
D10*
X237650Y110260D03*
X237650Y100260D03*
X252890Y110260D03*
X252890Y100260D03*
X268130Y110260D03*
X268130Y100260D03*
X15176Y105244D03*
X15176Y115244D03*
X259039Y186652D03*
X259039Y196652D03*
D22*
X224030Y8640D03*
X236730Y8640D03*
X249430Y8640D03*
X262130Y8640D03*
X262130Y86640D03*
X249430Y86640D03*
X236730Y86640D03*
X224030Y86640D03*
D23*
X243080Y47640D03*
D24*
X140341Y358890D02*
X133361Y358890D01*
X140341Y358890D02*
X140341Y351910D01*
X133361Y351910D01*
X133361Y358890D01*
X133361Y356710D02*
X140341Y356710D01*
X140341Y341350D02*
X133361Y341350D01*
X140341Y341350D02*
X140341Y334370D01*
X133361Y334370D01*
X133361Y341350D01*
X133361Y339170D02*
X140341Y339170D01*
X146061Y358890D02*
X153041Y358890D01*
X153041Y351910D01*
X146061Y351910D01*
X146061Y358890D01*
X146061Y356710D02*
X153041Y356710D01*
X153041Y341350D02*
X146061Y341350D01*
X153041Y341350D02*
X153041Y334370D01*
X146061Y334370D01*
X146061Y341350D01*
X146061Y339170D02*
X153041Y339170D01*
D12*
X126464Y148118D03*
X116464Y148118D03*
X126490Y136946D03*
X116490Y136946D03*
X76470Y110244D03*
X86470Y110244D03*
X86216Y125738D03*
X76216Y125738D03*
D10*
X15176Y188650D03*
X15176Y178650D03*
X15176Y152074D03*
X15176Y142074D03*
X67246Y159600D03*
X67246Y169600D03*
X124151Y344170D03*
X124151Y354170D03*
X162251Y344170D03*
X162251Y354170D03*
D12*
X68888Y89637D03*
X58888Y89637D03*
X143256Y240155D03*
X153256Y240155D03*
D10*
X270622Y196667D03*
X270622Y186667D03*
D12*
X153397Y225000D03*
X143397Y225000D03*
D10*
X246490Y186795D03*
X246490Y196795D03*
D12*
X28479Y89530D03*
X18479Y89530D03*
X38838Y89540D03*
X48838Y89540D03*
D25*
X33960Y65864D03*
X95960Y65864D03*
X41460Y65864D03*
X88460Y65864D03*
D26*
X47460Y65864D03*
X82460Y65864D03*
X52460Y65864D03*
X57460Y65864D03*
X62460Y65864D03*
X67460Y65864D03*
X72460Y65864D03*
X77460Y65864D03*
D27*
X94960Y54864D03*
D28*
X94960Y54864D03*
D29*
X50960Y23864D03*
X78960Y23864D03*
D28*
X34960Y54864D03*
D30*
X21760Y56324D02*
X21760Y67904D01*
X108160Y67904D02*
X108160Y56324D01*
D31*
X21760Y29864D02*
X21760Y17864D01*
X108160Y17864D02*
X108160Y29864D01*
D32*
X54136Y116974D03*
X47636Y116974D03*
X41136Y116974D03*
X34636Y116974D03*
X34636Y100974D03*
X41136Y100974D03*
X47636Y100974D03*
X54136Y100974D03*
D33*
X201380Y30288D03*
X176580Y30288D03*
X176580Y12588D03*
X201380Y12588D03*
D32*
X54390Y145168D03*
X47890Y145168D03*
X41390Y145168D03*
X34890Y145168D03*
X34890Y129168D03*
X41390Y129168D03*
X47890Y129168D03*
X54390Y129168D03*
X54390Y173108D03*
X47890Y173108D03*
X41390Y173108D03*
X34890Y173108D03*
X34890Y157108D03*
X41390Y157108D03*
X47890Y157108D03*
X54390Y157108D03*
D34*
X152071Y101594D03*
D35*
X150278Y279830D03*
X150278Y262330D03*
X132314Y280037D03*
X132314Y262537D03*
D36*
X131243Y313941D03*
X131243Y307441D03*
X131243Y300941D03*
X151743Y300941D03*
X151743Y307441D03*
X151743Y313941D03*
D37*
X141493Y307441D03*
D38*
X114237Y200205D03*
X114237Y213705D03*
D39*
X58500Y271000D03*
D40*
X58500Y198000D03*
X58500Y344000D03*
D39*
X224500Y271000D03*
D40*
X224500Y344000D03*
X224500Y198000D03*
M02*
