M48
;GenerationSoftware,Autodesk,EAGLE,9.6.2*%
;CreationDate,2023-08-14T16:06:45Z*%
FMAT,2
ICI,OFF
METRIC,TZ,000.000
T5C0.305
T4C0.600
T3C0.630
T2C0.650
T1C0.950
%
G90
M71
T1
X15207Y10159
T2
X10816Y2386
X2176Y2386
X10816Y6211
X2176Y6211
T3
X3496Y5486
X9496Y5486
T4
X9496Y5486
T5
X6522Y1283
X26972Y1155
X6445Y31418
X16307Y6240
X16170Y31993
X22613Y7273
X8319Y34462
X18908Y2194
X4841Y8112
X2132Y7998
X2239Y24464
X9598Y4545
X25552Y15043
X1263Y33414
X5759Y16511
X6594Y14406
X19447Y26774
X12782Y10065
X9455Y11063
X5378Y13717
X11510Y31453
X13212Y25218
X2246Y25485
X10752Y23902
X9380Y21569
X24312Y2517
X12121Y1178
X20330Y35691
X16302Y30670
X19443Y27732
X11674Y4635
X14763Y1149
X16536Y10697
X16282Y25734
X10710Y25745
X10965Y11067
X1299Y29137
X2296Y11962
X12280Y5159
X9758Y8958
X16731Y9912
X12883Y12831
X18562Y3996
X20378Y4874
X14833Y11538
X26980Y17857
X19433Y29615
X8349Y26805
X3185Y25505
X2212Y21363
X26993Y22177
X26221Y25727
X27005Y25707
X27000Y24540
X26985Y23402
X25396Y25740
X3664Y2857
X3216Y26490
X3216Y27490
X3216Y28490
X4248Y29627
X5248Y29627
X8379Y27778
X7387Y29599
X8347Y29647
X14182Y32123
X25385Y26714
X25400Y28590
X25402Y27659
X25387Y29568
X24088Y29593
X23015Y29610
X21946Y29593
X27000Y27626
X19427Y28648
X2220Y22379
X2228Y23410
X20901Y29596
X26899Y33731
X25029Y35496
X9264Y2857
X9264Y1857
X6522Y3083
X26981Y2501
X26999Y7276
X25804Y2502
X10453Y12008
X16032Y11333
X13352Y10913
X14140Y11138
X16787Y9120
X11933Y10027
X11012Y10025
X10777Y8493
X18287Y9552
X3168Y24531
X4144Y24599
X22418Y1874
X6036Y24589
X6954Y24611
X7859Y24611
X8353Y25759
X26973Y21122
X26744Y11809
X23846Y12161
X26203Y24557
X24008Y24557
X22890Y24522
X20884Y24508
X3504Y31396
X1270Y31396
X3490Y33414
X3515Y35679
X3266Y4545
X9764Y34425
X10611Y17899
X16320Y21995
X23337Y14532
X19446Y25783
X21881Y24492
X21253Y14740
X18049Y25716
X19483Y24571
X25393Y24542
X7446Y15207
X8366Y28707
X23668Y1848
X21864Y13012
X10610Y18772
X21505Y15588
X2991Y10897
X2889Y13691
X3634Y18213
X21702Y11585
X9127Y31477
X19080Y21326
X8074Y22603
X10772Y22586
X13844Y20431
X25894Y17902
X20099Y32012
X6623Y10389
X8554Y13501
X10717Y16323
X6496Y11431
X26058Y10512
X24958Y1862
X10808Y13673
X6453Y7589
X8792Y9361
X10882Y14811
X5577Y7596
X13230Y19191
X2457Y16511
X6191Y12955
X17790Y10433
X18029Y21992
X16304Y21127
X2635Y10085
X2164Y19953
X13983Y12992
X16955Y33671
X15542Y12044
X11594Y34202
X21662Y9034
X4515Y13704
X24523Y11500
X21663Y743
X1813Y9763
X1491Y4143
X18449Y20716
X19400Y5750
X22244Y16265
X24630Y17894
X20374Y5750
X20859Y16875
X18535Y8260
X13692Y10052
X15387Y3166
X16693Y3256
X13408Y6498
X14250Y3891
X2331Y17812
X2967Y18804
X14826Y24764
X18050Y24750
X24580Y20740
X7741Y5004
X3966Y7834
X5251Y5004
X3042Y7595
X15805Y29469
X15634Y19853
X2051Y12802
X13805Y23221
X3664Y1857
X9811Y25739
X12529Y33631
X15988Y33568
X11390Y12820
X16944Y15956
X24530Y10532
X5083Y24611
M30